{"glyphs":{"0":{"ha":344,"x_min":18,"x_max":324,"o":"m 171 138 q 53 204 96 138 q 26 277 33 236 q 24 358 18 318 q 25 364 24 363 q 26 369 25 368 q 35 407 28 390 q 98 497 57 472 q 176 518 139 521 q 232 501 206 515 q 278 464 258 488 q 310 409 297 440 q 324 343 322 378 q 323 311 324 331 q 317 269 322 292 q 301 222 311 246 q 272 179 290 199 q 171 138 232 138 m 115 346 q 117 297 113 321 q 132 254 121 272 q 153 234 143 238 q 171 231 164 231 q 194 235 186 231 q 206 243 201 239 q 225 283 218 257 q 231 339 232 308 q 209 401 228 378 q 171 425 190 424 q 131 394 146 428 q 129 392 129 393 q 128 389 129 390 q 124 378 125 381 q 119 363 121 371 q 117 349 118 356 q 116 347 117 347 q 115 346 115 347 z "},"1":{"ha":206,"x_min":19,"x_max":193,"o":"m 189 138 q 182 124 193 128 q 155 121 171 119 q 121 130 139 122 q 93 153 103 138 q 85 183 86 164 q 85 221 85 203 l 85 424 q 67 429 74 426 q 56 435 58 432 q 32 460 40 444 q 22 490 24 475 q 23 514 19 504 q 36 522 26 524 q 85 521 58 519 q 131 519 111 522 q 164 506 150 519 q 178 472 178 492 l 178 224 q 179 177 178 194 q 189 138 181 160 z "},"2":{"ha":351,"x_min":21,"x_max":332,"o":"m 313 239 q 327 230 322 240 q 330 204 332 219 q 319 173 328 189 q 294 149 311 157 q 293 147 294 149 l 292 147 q 283 144 286 144 q 257 140 272 140 q 217 140 242 140 l 68 140 q 35 153 49 140 q 21 186 21 167 l 21 194 q 32 241 21 221 q 60 277 43 261 q 99 305 78 293 q 139 328 119 317 q 200 364 178 347 q 222 400 222 381 q 205 423 222 418 q 178 428 188 428 l 168 428 q 151 413 156 421 q 144 397 146 404 q 142 382 143 389 q 136 371 142 375 q 108 366 125 363 q 77 382 92 369 q 56 414 63 394 q 60 457 49 433 q 72 474 64 464 q 92 492 81 483 q 128 513 107 504 q 178 521 149 521 q 239 510 213 521 q 282 483 265 500 q 307 444 299 465 q 315 400 315 422 q 303 344 315 368 q 270 302 290 321 q 227 270 250 283 q 183 246 204 257 q 171 240 176 243 q 158 232 165 236 l 226 232 q 269 234 246 233 q 313 239 293 235 z "},"3":{"ha":397,"x_min":21,"x_max":376,"o":"m 333 347 q 376 265 376 317 q 372 233 376 254 q 349 190 367 211 q 297 153 332 169 q 199 138 261 138 q 130 146 158 138 q 81 167 101 154 q 49 197 61 181 q 31 228 38 213 q 22 260 22 249 q 22 278 21 271 q 38 307 24 296 q 69 323 53 318 q 99 325 85 328 q 113 313 113 322 q 111 295 113 301 q 113 274 110 289 q 114 272 114 274 q 118 261 115 268 q 130 247 121 254 q 155 235 139 240 q 199 229 171 229 q 222 231 208 229 q 250 235 236 232 q 274 246 264 239 q 283 265 283 253 q 281 271 283 269 q 260 281 274 278 q 238 283 247 283 q 225 282 233 282 q 192 290 206 279 q 170 310 179 297 q 158 336 161 324 q 157 358 154 349 q 168 367 160 367 q 206 372 183 365 q 210 373 208 372 q 214 374 211 374 q 227 378 221 376 q 240 383 233 381 q 253 393 247 388 q 257 408 260 399 q 244 420 254 415 q 213 425 235 425 q 171 422 186 425 q 147 414 156 418 q 136 401 139 406 q 135 399 136 400 q 127 383 131 392 q 118 364 124 375 q 103 358 114 356 q 81 369 92 360 q 60 392 69 378 q 50 422 50 407 l 50 424 l 50 431 q 55 449 51 436 q 81 479 58 463 q 128 506 97 494 q 213 518 160 518 q 270 508 244 518 q 313 483 296 499 q 340 449 331 468 q 350 411 350 431 q 345 376 350 392 q 333 347 340 361 z "},"4":{"ha":364,"x_min":22,"x_max":340,"o":"m 339 131 q 331 117 340 121 q 306 114 321 113 q 276 123 292 115 q 251 146 260 131 q 244 168 244 158 q 243 200 243 178 l 243 226 l 71 226 q 36 244 50 226 q 26 282 22 258 l 47 399 q 51 417 49 404 q 56 446 54 431 q 60 477 58 461 q 61 507 61 493 q 73 519 61 517 q 99 517 85 522 q 127 501 114 513 q 146 474 140 490 q 147 471 147 472 q 149 467 147 469 q 149 460 149 464 q 149 454 150 457 q 147 433 149 446 q 143 401 146 421 l 128 319 l 243 319 l 243 440 q 240 469 242 456 q 236 494 239 483 q 244 509 233 504 q 269 512 254 514 q 301 501 285 510 q 328 478 318 493 q 334 449 333 469 q 335 404 335 428 l 335 169 q 335 147 335 153 q 339 131 336 140 z "},"5":{"ha":383,"x_min":21,"x_max":368,"o":"m 342 331 q 360 299 353 319 q 361 246 368 278 q 333 190 356 219 q 251 146 310 160 q 199 138 226 139 q 143 136 171 136 l 114 136 q 82 136 93 135 q 63 143 71 138 q 38 167 47 151 q 27 198 29 183 q 29 223 25 213 q 43 232 33 233 q 60 231 51 231 q 81 229 69 231 q 83 230 82 229 q 85 231 83 231 q 99 230 92 231 q 114 229 107 229 q 175 230 143 229 q 231 236 207 231 q 263 251 257 243 q 269 264 268 258 q 270 268 269 265 q 269 272 271 271 q 253 283 265 279 q 215 286 242 286 q 162 287 186 288 q 118 285 138 286 q 79 282 96 283 q 38 299 54 278 q 29 342 21 318 l 75 486 q 119 518 85 518 l 304 518 l 307 518 q 342 522 325 518 q 356 513 351 524 q 359 486 361 501 q 349 454 357 471 q 324 429 340 438 q 292 424 313 424 q 224 425 271 424 l 222 425 l 153 425 l 138 379 q 175 380 156 379 q 217 379 194 381 q 342 331 306 378 z "},"6":{"ha":340,"x_min":14,"x_max":318,"o":"m 261 354 q 318 258 318 321 q 309 205 318 231 q 281 159 300 179 q 234 126 263 139 q 167 114 206 114 q 40 175 78 114 q 22 229 26 199 q 38 324 14 276 q 70 373 49 347 q 115 420 92 399 q 158 458 138 442 q 186 482 178 475 q 207 499 197 490 q 224 515 217 507 q 240 517 231 524 q 258 497 250 511 q 269 465 267 483 q 264 429 272 446 q 246 404 258 415 q 203 375 233 393 l 201 374 q 232 367 217 371 q 261 354 247 363 m 167 207 q 182 208 172 207 q 201 213 192 208 q 218 228 211 218 q 225 258 225 239 q 224 265 225 261 q 214 274 222 269 q 176 283 199 283 q 135 272 153 282 q 118 256 122 265 q 114 239 114 246 q 119 225 117 231 q 167 207 129 207 z "},"7":{"ha":369,"x_min":22,"x_max":356,"o":"m 342 494 q 342 447 356 469 l 175 179 q 158 151 167 165 q 144 122 149 136 q 131 115 140 114 q 110 124 121 117 q 90 145 99 132 q 78 174 81 158 q 77 183 76 179 q 79 193 78 188 l 79 194 q 87 213 82 203 q 103 238 92 222 l 218 425 l 150 425 q 91 426 110 425 q 61 431 72 426 q 49 437 54 433 q 39 447 43 440 q 26 472 31 458 q 22 498 22 486 q 26 517 22 510 q 39 524 31 525 q 78 519 57 519 q 118 518 100 519 l 301 518 q 342 494 329 518 z "},"8":{"ha":311,"x_min":17,"x_max":299,"o":"m 288 282 q 264 190 299 233 q 149 138 222 138 q 78 158 110 138 q 31 210 46 178 q 22 268 17 236 q 42 317 26 300 q 46 322 44 319 q 50 326 47 324 q 32 360 39 339 q 29 413 25 382 q 44 458 32 439 q 72 491 56 478 q 109 511 89 504 q 150 518 129 518 q 226 492 190 518 q 269 418 263 465 q 256 338 276 374 q 288 282 279 314 m 121 401 q 121 392 121 399 q 124 382 121 385 q 144 371 129 375 q 174 382 160 367 q 178 406 181 389 q 165 421 175 417 q 150 425 156 425 q 135 422 147 425 q 121 401 124 418 m 190 246 q 197 260 197 254 q 184 276 194 271 q 163 282 174 281 q 154 281 158 282 q 144 281 150 281 q 122 269 131 278 q 118 263 119 264 l 117 263 q 115 255 115 260 q 115 249 114 250 q 127 236 118 242 q 149 231 136 231 q 190 246 175 231 z "},"9":{"ha":339,"x_min":21,"x_max":318,"o":"m 318 390 q 300 310 318 347 q 256 247 285 278 q 199 190 226 215 q 156 155 171 165 q 128 142 142 144 q 93 145 110 139 q 66 162 76 151 q 52 183 56 172 q 58 200 49 194 q 90 222 74 208 q 121 247 106 236 q 133 257 128 251 q 144 268 139 263 q 56 308 90 275 q 21 389 21 340 q 29 436 21 413 q 55 478 38 460 q 101 508 72 497 q 172 519 131 519 q 297 458 258 519 q 314 414 310 438 q 318 397 318 406 l 318 390 m 211 372 q 224 392 224 381 q 218 408 224 400 q 172 426 208 426 q 138 422 150 426 q 121 413 126 418 q 115 401 115 407 q 114 389 114 394 q 133 367 114 374 q 167 360 151 360 q 211 372 194 360 z "},"\u0000":{"ha":0,"x_min":0,"x_max":0,"o":""},"\r":{"ha":278,"x_min":0,"x_max":0,"o":""}," ":{"ha":278,"x_min":0,"x_max":0,"o":""},"e":{"ha":418,"x_min":0,"x_max":532,"o":"m 196 136 q 74 173 122 136 q 11 276 26 210 q 7 363 0 324 q 32 431 14 401 q 76 481 50 461 q 131 511 101 501 q 197 518 158 519 q 268 496 236 517 q 313 424 308 469 q 306 371 315 397 q 279 319 296 344 q 240 271 263 294 q 197 229 218 247 q 211 229 204 229 q 225 231 218 229 q 299 258 264 236 q 362 306 333 279 q 410 361 390 333 q 440 406 431 389 q 469 428 451 422 q 504 422 488 433 q 526 394 521 413 q 521 360 532 376 q 499 325 519 357 q 441 254 478 293 q 352 181 404 215 q 238 139 300 147 q 217 137 226 138 q 196 136 207 136 m 188 426 q 165 422 174 426 q 150 415 163 421 q 125 394 138 408 q 105 356 113 381 q 106 296 97 332 q 113 275 107 289 q 155 313 135 293 q 190 352 175 333 q 213 388 204 371 q 219 415 221 404 l 219 417 q 217 418 218 417 q 188 426 206 426 z "},"f":{"ha":290,"x_min":-1,"x_max":396,"o":"m 383 403 q 395 369 396 388 q 381 338 394 350 q 267 259 324 286 q 163 219 210 232 q 195 173 179 200 q 225 111 211 146 q 238 50 236 82 q 234 -10 240 18 q 214 -63 228 -39 q 179 -101 200 -87 q 126 -119 156 -119 q 88 -112 107 -119 q 53 -89 69 -104 q 23 -47 33 -72 q 8 8 13 -21 q 1 66 3 38 q -1 118 -1 94 q 0 147 -1 126 q 3 190 1 168 q 6 233 4 213 q 7 260 7 253 q 12 305 10 282 q 17 351 14 328 q 38 491 28 440 q 61 576 49 542 q 63 579 63 578 q 106 645 78 619 q 163 668 133 671 q 198 657 185 667 q 217 635 211 647 q 219 610 222 622 q 203 593 215 599 q 176 583 185 586 q 156 561 167 579 q 146 535 151 550 q 134 495 140 519 q 122 435 128 471 q 110 349 115 399 q 107 324 108 336 q 104 301 106 313 q 202 331 144 308 q 318 406 260 354 q 352 418 333 419 q 383 403 371 417 m 138 -11 q 147 28 144 4 q 139 78 149 53 q 116 124 128 104 q 93 158 104 143 q 92 133 92 143 q 90 121 92 124 q 94 76 92 99 q 101 34 97 53 q 108 1 104 15 q 115 -19 111 -14 q 126 -26 119 -28 q 138 -11 131 -25 z "},"g":{"ha":406,"x_min":-4,"x_max":507,"o":"m 138 -218 q 84 -203 110 -218 q 42 -161 58 -189 q 23 -112 29 -140 q 22 -52 17 -85 q 44 17 26 -19 q 97 92 63 54 q 129 127 114 111 q 160 158 144 143 q 154 157 158 157 q 84 160 111 150 q 42 182 57 169 q -4 292 -4 221 q 93 471 -4 406 q 151 497 121 489 q 206 505 181 504 q 249 503 232 506 q 271 501 267 501 q 292 491 283 499 q 306 472 301 483 q 308 451 308 465 q 308 435 308 438 q 308 419 308 428 q 307 399 308 411 q 306 351 307 379 q 301 292 304 324 q 336 324 322 311 q 364 350 350 338 q 393 376 378 363 q 429 407 408 389 q 463 418 444 419 q 494 401 482 417 q 506 367 507 386 q 489 336 504 349 q 453 306 468 318 q 426 281 439 293 q 397 254 413 268 q 360 219 382 240 q 338 199 349 210 q 311 175 326 188 l 293 157 q 286 49 289 97 q 281 -19 283 0 q 248 -153 274 -110 q 167 -214 222 -197 l 165 -214 q 138 -218 150 -218 m 193 60 q 180 45 186 53 q 167 29 174 38 q 117 -53 125 -15 q 121 -112 108 -92 q 129 -122 124 -118 q 140 -125 135 -126 q 156 -118 149 -122 q 170 -103 164 -114 q 181 -71 176 -92 q 189 -12 186 -50 q 193 60 190 7 m 215 413 q 178 408 197 411 q 144 393 160 404 q 101 351 114 374 q 89 293 89 328 q 101 253 89 263 q 120 247 108 246 q 139 249 132 247 q 161 265 147 250 q 190 313 175 279 q 207 363 201 338 q 215 407 213 388 l 215 413 z "},"h":{"ha":435,"x_min":-1,"x_max":538,"o":"m 521 406 q 537 374 536 393 q 526 340 538 356 q 497 306 524 338 q 435 238 471 275 q 374 177 399 200 q 331 142 349 154 q 303 127 314 131 q 283 124 292 124 l 279 124 q 229 149 247 126 q 213 210 210 174 q 225 293 215 246 q 233 333 229 313 q 239 372 236 354 q 235 402 240 396 q 228 408 231 408 q 185 394 204 408 q 152 356 167 379 q 126 305 138 333 q 108 250 115 276 q 101 195 104 228 q 106 133 99 163 q 98 115 108 121 q 72 111 88 110 q 38 121 56 113 q 10 142 19 129 q 1 203 -1 156 q 13 332 4 247 q 46 543 22 417 q 56 599 51 569 q 58 649 61 629 q 67 666 57 661 q 92 668 78 671 q 122 656 107 665 q 144 632 136 646 q 149 600 151 619 q 140 540 147 581 q 135 517 138 525 q 132 501 133 508 q 129 486 131 494 q 126 464 128 478 q 178 493 153 486 q 228 500 204 500 q 278 489 260 500 q 307 467 297 478 q 326 426 321 449 q 331 378 332 403 q 326 326 331 353 q 317 274 322 299 q 314 260 315 267 q 311 246 313 253 q 379 316 340 274 q 454 400 418 358 q 486 417 467 415 q 521 406 506 418 z "},"i":{"ha":224,"x_min":0,"x_max":331,"o":"m 310 410 q 328 378 325 397 q 318 344 331 360 q 311 334 318 343 q 292 311 304 325 q 265 280 281 297 q 231 244 249 263 q 169 186 196 208 q 123 152 143 164 q 88 137 103 140 q 63 133 74 133 l 61 133 q 19 154 36 133 q 8 175 13 163 q 1 208 3 188 q 2 260 0 229 q 11 338 4 292 q 22 415 17 381 q 31 461 28 450 q 33 484 33 476 q 33 500 33 492 q 42 517 32 513 q 65 519 51 521 q 93 507 79 517 q 115 483 107 497 q 117 481 117 482 q 118 479 117 481 q 121 453 122 465 q 119 433 119 442 q 115 408 118 424 q 101 319 107 363 q 94 244 96 275 q 165 310 124 267 q 244 401 207 353 q 276 419 257 417 q 310 410 294 421 m 97 546 q 65 560 79 546 q 51 593 51 572 q 65 625 51 613 q 97 639 79 639 q 131 625 117 639 q 144 593 144 611 q 131 560 144 574 q 97 546 117 546 z "},"j":{"ha":260,"x_min":-100,"x_max":371,"o":"m 169 543 q 138 557 151 543 q 124 589 124 571 q 138 622 124 608 q 169 636 151 636 q 203 622 189 636 q 217 589 217 608 q 203 557 217 571 q 169 543 189 543 m 353 406 q 369 374 368 393 q 358 340 371 356 q 301 276 332 310 q 235 204 269 242 q 205 173 219 189 q 175 140 190 157 q 151 -78 169 1 q 97 -189 133 -157 q 60 -212 81 -204 q 17 -219 39 -219 q -26 -212 -6 -219 q -64 -189 -47 -204 q -89 -153 -79 -175 q -99 -103 -99 -131 q -88 -42 -100 -75 q -47 26 -76 -10 q 17 104 -15 67 q 83 178 50 142 l 83 181 q 85 198 83 185 q 88 232 86 211 q 90 278 89 253 q 93 331 92 303 l 79 318 q 47 303 67 303 q 14 317 28 303 q -1 349 0 329 q 13 382 -1 368 l 64 435 q 83 457 75 446 q 97 475 90 467 q 103 490 103 483 q 112 508 101 503 q 136 513 122 514 q 165 505 150 513 q 186 483 179 497 q 192 465 189 476 q 192 460 192 463 q 193 454 193 457 q 189 397 193 435 q 186 344 188 374 q 183 285 185 314 q 239 345 213 317 q 286 400 265 374 q 318 417 299 415 q 353 406 338 418 m 36 -119 q 42 -111 38 -118 q 51 -88 46 -104 q 63 -44 57 -72 q 74 26 69 -17 q 49 -3 61 11 q 25 -32 38 -17 q -6 -88 -1 -65 q 0 -121 -10 -111 q 17 -127 7 -126 q 36 -119 26 -128 z "},"k":{"ha":408,"x_min":1,"x_max":517,"o":"m 489 413 q 511 385 506 404 q 508 350 517 367 q 502 338 508 349 q 486 312 496 328 q 463 276 476 296 q 435 236 450 257 q 274 129 351 129 q 243 133 260 129 q 204 151 224 139 q 166 180 185 164 q 129 213 147 196 q 97 247 111 231 q 100 196 97 224 q 113 144 103 168 q 107 125 117 132 q 81 117 97 118 q 47 122 65 117 q 18 139 29 126 q 6 159 8 147 q 3 176 3 171 q 1 208 1 190 q 4 254 1 225 q 8 313 6 282 q 14 378 10 343 q 25 456 18 414 q 44 551 32 499 q 56 606 51 581 q 57 649 60 631 q 66 666 56 661 q 91 668 76 671 q 120 656 106 665 q 143 631 135 646 q 149 579 157 606 q 131 511 142 553 q 126 487 126 494 q 122 463 125 479 q 264 501 201 531 q 267 500 265 500 q 313 454 304 478 q 318 417 321 431 q 285 360 314 385 q 197 311 256 335 l 172 303 q 225 252 199 275 q 269 224 251 229 q 301 233 282 219 q 343 272 321 247 q 387 329 365 297 q 425 393 408 361 q 453 416 435 410 q 489 413 471 422 m 225 426 q 199 417 217 426 q 154 379 182 407 q 205 401 183 390 q 235 422 226 413 q 229 425 235 422 q 227 426 228 425 q 225 426 226 426 z "},"l":{"ha":243,"x_min":0,"x_max":354,"o":"m 333 408 q 351 378 349 397 q 343 343 354 358 q 278 262 314 301 q 204 191 242 222 q 131 140 167 160 q 67 121 96 121 q 62 122 64 121 q 57 122 60 122 q 7 161 18 126 q 2 174 4 165 q 0 206 0 183 q 3 267 0 228 q 17 369 7 306 q 22 410 19 392 q 28 444 25 428 q 35 479 32 461 q 43 518 39 497 q 59 588 50 550 q 67 649 68 625 q 76 667 65 663 q 103 669 88 672 q 135 655 119 665 q 157 628 150 644 q 160 610 160 622 q 159 604 160 607 q 158 599 158 601 q 151 560 156 582 q 138 501 146 539 q 110 354 118 418 q 97 240 101 290 q 102 234 97 236 q 110 235 107 232 q 182 294 140 254 q 268 397 224 335 q 299 416 279 413 q 333 408 318 419 z "},"m":{"ha":563,"x_min":-1,"x_max":674,"o":"m 643 414 q 667 390 661 407 q 664 354 674 372 q 616 274 644 314 q 556 203 588 235 q 493 151 524 172 q 440 125 463 129 q 433 124 438 125 q 426 124 429 124 q 388 142 401 124 q 369 203 367 165 q 381 290 371 240 q 384 315 382 300 q 388 346 386 331 q 392 375 390 361 q 392 399 393 389 q 390 405 392 401 q 379 406 388 408 q 344 378 360 399 q 315 330 328 357 q 294 274 303 303 q 281 225 285 246 q 279 224 279 225 l 279 218 q 277 180 276 200 q 283 143 278 160 q 276 124 286 131 q 250 118 265 118 q 218 124 235 118 q 192 140 201 129 q 186 149 189 144 q 181 158 183 153 q 180 167 181 163 q 181 178 179 172 q 183 203 181 190 q 188 228 185 215 q 196 270 192 250 q 204 308 200 290 q 217 364 211 335 q 218 404 222 393 q 208 408 215 408 q 177 394 193 408 q 147 358 161 381 q 123 310 133 336 q 107 263 113 285 q 101 234 103 244 q 97 211 100 224 q 97 177 96 194 q 100 144 97 160 q 91 126 101 132 q 65 121 81 121 q 33 127 50 121 q 8 146 17 133 q 4 153 6 149 q 0 161 3 157 q -1 172 -1 168 q -1 183 -1 176 q 2 204 1 194 q 6 229 3 214 q 23 385 22 331 q 22 442 24 440 q 23 449 24 444 q 22 458 22 453 q 18 486 19 476 q 26 505 15 499 q 51 512 36 511 q 83 507 67 513 q 107 489 99 501 q 111 479 111 485 q 115 472 114 476 q 119 463 117 467 q 163 490 138 479 q 217 501 189 501 q 293 468 269 501 q 301 461 296 467 q 353 493 326 485 q 401 501 379 501 q 463 474 439 501 q 481 437 476 458 q 485 390 486 415 q 481 338 485 365 q 472 283 476 311 q 469 263 471 274 q 467 240 468 251 q 526 303 493 264 q 581 386 560 342 q 608 413 590 404 q 643 414 626 421 z "},"n":{"ha":393,"x_min":1,"x_max":501,"o":"m 476 414 q 497 390 493 407 q 492 354 501 372 q 440 278 469 317 q 378 208 410 240 q 313 154 346 176 q 251 126 279 132 q 236 125 247 125 q 189 147 206 125 q 174 224 164 179 q 203 317 185 269 q 213 341 207 326 q 222 369 218 356 q 228 394 226 383 q 226 410 229 406 l 225 410 q 222 411 224 410 q 196 407 208 415 q 169 385 182 400 q 144 353 156 371 q 124 318 132 336 q 111 288 115 300 q 100 237 103 253 q 94 200 97 221 q 93 177 93 189 q 93 154 93 165 q 83 135 94 142 q 58 128 72 129 q 28 133 43 126 q 7 151 13 139 q 3 163 3 156 q 1 186 1 169 q 5 212 3 197 q 13 256 7 226 q 29 381 28 340 q 28 436 31 421 q 21 476 28 458 q 28 494 17 486 q 56 504 39 501 q 90 503 72 507 q 115 489 107 500 q 122 458 124 474 q 161 486 143 478 q 264 500 214 515 q 283 492 272 497 q 303 475 294 486 q 318 447 313 464 q 321 404 324 429 q 310 353 318 379 q 292 299 303 326 q 281 269 286 286 q 271 238 275 253 q 272 232 269 235 q 276 232 274 229 q 341 291 303 251 q 411 389 379 331 q 440 414 421 407 q 476 414 460 421 z "},"o":{"ha":429,"x_min":-4,"x_max":540,"o":"m 522 404 q 539 373 538 392 q 526 339 540 354 q 370 206 457 260 q 194 131 283 151 q 138 122 169 122 q 35 175 72 122 q 1 269 7 213 q 15 383 -4 325 q 55 452 29 428 q 108 488 81 476 q 156 502 135 500 q 182 504 178 504 l 183 504 q 254 488 228 504 q 294 457 281 472 q 317 416 310 438 q 325 374 324 394 q 324 335 326 353 q 321 307 322 318 q 319 294 319 300 q 315 282 318 289 q 390 335 354 306 q 457 401 426 365 q 490 417 471 415 q 522 404 508 418 m 108 356 q 96 279 94 313 q 110 229 97 246 q 138 215 119 215 l 150 215 l 171 219 q 204 249 189 226 q 231 326 219 272 q 233 366 233 346 q 222 399 232 386 q 212 406 219 401 q 183 411 204 411 l 182 411 q 170 410 179 411 q 149 403 161 408 q 126 388 138 399 q 108 356 114 376 z "},"p":{"ha":475,"x_min":-26,"x_max":585,"o":"m 568 404 q 584 373 583 392 q 572 339 585 354 q 388 185 485 240 q 194 125 290 131 q 182 123 188 124 q 169 122 176 122 q 83 154 119 122 q 74 58 78 101 q 68 -22 71 15 q 70 -67 68 -43 q 79 -111 72 -92 q 74 -130 83 -124 q 51 -136 65 -136 q 19 -131 36 -136 q -11 -114 1 -125 q -22 -89 -21 -104 q -25 -76 -25 -81 q -25 -40 -26 -67 q -22 18 -24 -12 q -17 76 -19 49 q -14 113 -15 103 q -1 244 -8 174 q 18 389 7 315 q 24 423 21 403 q 31 463 28 443 q 35 499 33 482 q 36 522 38 515 q 44 540 35 535 q 68 542 54 544 q 97 529 82 539 q 119 506 111 519 q 125 492 125 497 q 128 469 129 481 q 126 458 126 467 q 244 522 185 522 q 310 505 281 522 q 358 456 340 488 q 379 372 378 419 q 365 281 381 324 q 435 333 401 303 q 503 401 469 364 q 534 417 515 415 q 568 404 553 418 m 139 229 q 169 215 151 215 q 179 217 171 215 q 201 224 188 218 q 232 245 215 231 q 265 288 249 260 q 286 350 283 313 q 276 411 289 388 q 244 431 265 431 q 236 428 243 431 q 217 417 229 426 q 187 388 204 408 q 147 332 169 368 q 135 310 140 321 q 124 290 129 300 q 139 229 119 253 z "},"q":{"ha":432,"x_min":-26,"x_max":543,"o":"m 521 408 q 540 378 536 397 q 532 343 543 358 q 408 216 472 258 q 297 157 343 174 q 337 72 315 121 q 369 -25 358 24 q 371 -117 381 -75 q 331 -185 361 -158 q 294 -208 315 -200 q 253 -215 274 -215 q 217 -210 233 -215 q 169 -175 189 -199 q 144 -118 150 -151 q 145 -13 138 -79 q 169 132 153 53 q 108 119 142 119 q 17 160 50 119 q -7 304 -26 214 q 59 446 11 394 q 172 497 107 497 q 219 490 200 497 q 253 474 239 483 q 253 485 253 481 q 254 494 254 490 q 264 511 254 507 q 287 512 274 515 q 314 498 300 508 q 335 474 328 488 q 338 444 340 464 q 332 417 335 432 q 322 379 329 403 q 306 315 314 346 q 292 254 299 283 q 370 304 326 271 q 456 397 414 338 q 486 416 467 413 q 521 408 506 419 m 108 211 q 141 222 125 211 q 170 247 157 232 q 194 278 183 261 q 208 306 204 294 q 211 317 210 311 q 214 328 213 322 q 214 365 217 347 q 201 394 211 383 q 192 401 199 397 q 172 404 186 404 q 140 393 154 404 q 114 365 125 382 q 95 327 103 349 q 83 285 88 306 q 81 242 78 258 q 89 219 83 226 q 94 214 90 217 q 108 211 97 211 m 269 -117 q 283 -89 281 -107 q 279 -47 285 -71 q 265 -1 274 -24 q 247 44 257 22 q 236 -46 239 -8 q 236 -103 233 -83 q 240 -114 238 -108 q 247 -122 242 -119 q 269 -117 257 -126 z "},"r":{"ha":436,"x_min":3,"x_max":546,"o":"m 522 410 q 542 380 538 399 q 535 346 546 361 q 528 335 535 344 q 509 309 521 325 q 481 274 497 293 q 447 233 465 254 q 263 121 344 121 l 249 121 q 243 122 246 122 q 174 181 193 135 q 165 271 157 219 q 189 368 172 322 q 175 367 182 367 q 161 367 168 367 l 157 367 q 135 368 144 368 q 115 371 126 368 q 102 350 107 356 q 90 336 97 344 q 67 315 79 322 q 43 308 56 308 q 17 321 31 308 q 3 348 3 333 q 8 375 3 363 q 26 404 14 390 q 31 411 28 407 q 35 417 33 414 q 40 426 38 421 q 18 457 29 440 q 7 492 7 474 q 13 526 7 513 q 28 547 19 539 q 44 557 36 554 q 57 561 53 560 q 103 551 82 567 q 133 515 124 536 q 142 460 144 488 l 160 460 l 164 460 q 203 465 185 458 q 235 481 221 472 q 246 492 243 488 q 251 504 249 497 q 264 517 254 515 q 285 514 274 519 q 308 497 297 508 q 322 471 318 485 q 324 453 325 458 q 318 431 324 440 q 311 415 315 424 q 301 397 307 407 q 279 344 289 371 q 263 292 269 317 q 256 249 257 268 q 258 218 254 229 q 263 214 260 214 l 264 214 q 304 230 281 214 q 355 272 328 246 q 409 331 382 299 q 458 397 436 364 q 488 417 469 413 q 522 410 507 421 z "},"s":{"ha":319,"x_min":-3,"x_max":429,"o":"m 407 408 q 426 378 422 397 q 418 343 429 358 q 397 314 417 340 q 342 253 376 288 q 262 186 307 219 q 165 135 217 153 q 103 119 138 119 q 42 132 72 119 q 18 146 29 138 q 4 167 7 154 q 2 203 -3 185 q 16 235 7 222 q 37 251 25 247 q 57 246 49 256 q 70 228 67 235 q 86 215 74 221 q 131 222 117 206 q 135 240 136 231 q 127 260 133 250 q 113 278 121 269 q 97 290 104 286 q 56 319 78 303 q 13 389 24 346 q 22 465 3 432 q 83 513 42 497 q 182 504 125 528 q 200 492 194 499 q 207 482 204 488 q 215 446 215 464 q 208 414 214 428 q 191 394 201 400 q 171 397 181 389 q 159 410 164 404 q 146 419 154 415 q 120 427 132 426 q 103 418 108 428 q 102 406 100 413 q 111 393 104 399 q 128 381 118 386 q 147 369 138 375 q 187 335 168 357 q 219 279 206 314 q 221 276 221 278 q 222 272 221 275 q 296 342 264 306 q 343 397 328 378 q 373 416 354 413 q 407 408 392 419 z "},"t":{"ha":321,"x_min":-14,"x_max":426,"o":"m 410 404 q 426 373 425 392 q 414 339 426 354 q 303 223 351 269 q 214 150 254 176 q 118 114 158 114 q 67 132 92 114 q 49 152 57 139 q 36 192 40 165 q 34 260 32 218 q 46 365 36 301 q 51 397 49 383 q 55 422 53 410 q 60 447 57 435 q 68 478 64 460 q 36 478 51 479 q 10 475 21 478 q -8 481 -3 472 q -14 504 -14 490 q -7 533 -14 518 q 13 558 0 549 q 22 564 18 561 q 32 568 26 567 q 50 572 40 572 l 57 572 l 94 572 q 100 590 97 582 q 106 607 103 599 q 114 651 114 632 q 125 667 114 664 q 150 666 136 671 q 178 650 164 661 q 197 624 192 639 q 202 599 203 611 q 197 572 201 588 q 237 571 215 572 q 276 576 258 569 q 295 572 289 581 q 301 548 301 563 q 295 517 301 533 q 276 490 289 500 q 256 479 265 482 q 236 476 247 476 q 209 478 225 476 q 168 479 193 479 l 167 479 q 134 315 143 386 q 131 208 125 244 q 153 219 138 211 q 193 249 168 228 q 256 306 218 269 q 344 401 293 343 q 376 417 357 415 q 410 404 396 418 z "},"u":{"ha":394,"x_min":-1,"x_max":507,"o":"m 482 410 q 503 380 499 399 q 497 346 507 361 q 424 238 456 281 q 368 171 393 196 q 324 136 343 146 q 289 126 306 126 q 275 128 281 126 q 244 143 256 131 q 228 171 233 156 q 222 190 225 179 q 174 140 200 158 q 113 122 147 122 q 26 165 57 122 q 7 208 13 183 q 0 260 1 233 q 2 315 -1 288 q 11 368 6 343 q 20 405 15 383 q 26 431 25 426 q 36 470 32 451 q 40 504 40 489 q 51 521 40 517 q 75 521 61 525 q 103 506 89 517 q 125 481 118 496 q 123 441 129 469 q 107 368 117 413 q 93 277 96 319 q 101 219 90 235 q 113 215 103 215 q 135 229 121 215 q 165 279 149 243 q 192 345 181 310 q 214 418 203 381 q 224 465 219 442 q 228 504 229 489 q 238 521 228 517 q 261 522 247 525 q 290 509 275 519 q 311 485 304 499 q 317 469 314 478 q 316 446 318 461 q 313 428 314 431 q 308 382 310 407 q 304 331 306 357 q 303 281 303 306 q 306 239 303 257 q 349 290 321 254 q 418 394 376 326 q 447 416 429 411 q 482 410 465 421 z "},"v":{"ha":400,"x_min":8,"x_max":508,"o":"m 483 410 q 504 381 500 399 q 497 346 508 363 q 466 305 483 325 q 428 269 449 285 q 386 243 408 253 q 342 233 364 233 q 314 238 326 233 q 283 254 299 242 q 254 199 269 224 q 222 158 239 174 q 154 124 190 124 q 93 157 122 124 q 60 208 76 175 q 31 281 43 240 q 14 369 19 322 q 15 464 8 415 q 31 492 19 481 q 56 510 40 504 q 87 515 72 515 q 110 510 101 515 q 115 492 119 504 q 110 469 113 485 q 108 450 108 453 q 106 383 103 415 q 117 321 110 350 q 134 268 124 292 q 154 231 144 244 q 158 228 156 229 q 163 231 161 228 q 183 260 172 242 q 207 310 194 279 q 231 382 222 347 q 240 444 236 408 q 242 501 244 479 q 250 519 240 514 q 274 522 260 524 q 303 510 289 519 q 326 488 318 501 q 329 482 328 485 q 331 476 331 479 q 335 458 335 468 q 331 406 335 432 q 334 346 329 363 q 342 326 339 329 q 375 344 353 328 q 419 397 397 361 q 449 417 431 413 q 483 410 468 421 z "},"w":{"ha":590,"x_min":6,"x_max":697,"o":"m 674 408 q 693 379 689 397 q 686 344 697 361 q 661 309 678 332 q 622 265 644 286 q 573 226 600 243 q 518 210 546 210 q 494 214 507 210 q 487 217 490 215 q 479 221 483 218 q 476 210 476 215 q 472 201 475 206 q 463 181 469 194 q 445 156 456 168 q 420 134 435 143 q 386 125 406 125 q 310 152 347 125 q 249 246 274 179 q 204 159 229 193 q 139 125 179 125 q 65 168 100 125 q 22 259 39 201 q 13 394 6 317 q 26 475 15 450 q 46 497 33 490 q 75 509 58 506 q 106 510 92 513 q 128 501 119 508 q 133 483 138 494 q 128 466 131 474 q 122 447 125 458 q 109 315 103 368 q 131 236 115 261 q 140 230 138 226 q 143 236 142 233 q 163 278 153 254 q 179 322 172 303 q 199 373 189 347 q 221 422 210 399 q 228 435 225 429 q 236 447 232 442 q 264 461 247 457 q 294 464 281 465 q 317 456 308 463 q 321 439 325 450 q 314 400 314 425 q 335 280 318 321 q 368 225 351 239 q 379 223 376 218 q 383 231 382 228 q 403 283 393 251 q 419 343 413 315 q 424 357 421 347 q 429 376 426 367 q 435 394 432 386 q 438 406 438 403 q 453 463 444 432 q 463 515 463 494 q 473 530 463 528 q 497 526 483 532 q 525 507 511 519 q 546 481 539 494 q 549 475 549 475 q 551 460 551 468 q 549 440 551 453 q 535 405 542 421 q 521 361 528 389 q 517 317 515 329 q 526 306 519 306 q 562 335 539 313 q 608 396 585 357 q 638 415 619 411 q 674 408 657 419 z "},"x":{"ha":518,"x_min":10,"x_max":631,"o":"m 601 411 q 624 384 618 403 q 621 349 631 365 q 603 315 621 347 q 558 244 586 283 q 404 122 475 128 l 397 122 q 319 164 350 122 q 318 165 319 164 l 318 167 q 289 213 303 190 q 263 254 275 235 l 182 147 q 172 128 175 138 q 167 110 169 119 q 152 99 164 99 q 128 107 140 99 q 105 129 115 115 q 93 158 94 143 q 92 171 92 165 q 94 181 93 176 q 98 188 96 183 q 103 199 100 192 l 104 199 q 113 212 108 206 q 124 225 117 218 l 210 339 q 178 383 193 364 q 151 408 163 403 q 126 381 142 400 q 96 343 111 363 q 66 324 85 328 q 32 332 47 321 q 13 363 17 343 q 21 397 10 382 q 70 458 49 436 q 106 490 92 479 q 131 501 121 500 q 146 503 140 503 q 210 480 182 503 q 268 417 239 457 l 300 457 q 317 487 311 472 q 326 517 324 501 q 341 528 329 529 q 365 519 353 528 q 390 497 378 511 q 404 467 401 482 q 394 432 407 451 q 358 381 382 413 l 322 333 l 331 321 q 360 272 344 297 q 394 218 376 246 q 399 215 397 215 q 406 218 400 215 q 422 229 411 221 q 447 253 432 238 q 481 296 461 269 q 522 361 506 332 q 539 392 539 390 q 566 415 547 408 q 601 411 585 421 z "},"y":{"ha":419,"x_min":6,"x_max":529,"o":"m 513 406 q 528 373 528 392 q 517 339 529 354 q 453 269 482 300 q 397 210 424 238 q 344 159 369 183 q 293 113 318 135 q 280 19 288 64 q 261 -66 272 -26 q 235 -137 250 -106 q 197 -189 219 -169 q 125 -218 165 -218 q 93 -214 107 -218 q 44 -180 64 -204 q 17 -124 24 -156 q 28 -26 6 -75 q 100 68 50 24 q 132 97 117 83 q 163 124 147 110 q 183 141 174 132 q 204 158 193 150 q 206 167 204 164 l 207 182 q 209 206 208 193 q 211 231 210 218 q 169 196 190 207 q 141 184 156 188 q 111 181 126 181 q 79 185 96 181 q 42 210 56 192 q 21 251 28 228 q 13 301 14 275 q 14 351 11 328 q 20 426 17 393 q 25 465 24 460 q 25 486 25 476 q 24 503 25 496 q 31 521 21 515 q 55 525 40 526 q 85 516 69 524 q 108 494 100 508 q 117 447 119 475 q 107 365 114 418 q 106 309 104 333 q 113 272 107 285 q 118 274 115 274 q 124 276 121 274 q 180 331 153 293 q 222 451 207 369 q 224 477 224 465 q 222 499 225 489 q 230 517 219 511 q 256 521 240 522 q 287 511 271 519 q 311 489 303 503 q 317 465 315 481 q 318 415 319 449 q 313 343 315 386 q 307 253 311 300 q 372 319 339 283 q 446 400 406 354 q 478 417 460 415 q 513 406 497 418 m 135 -121 q 165 -66 153 -106 q 185 19 176 -26 q 174 9 179 14 q 163 -1 168 4 q 117 -55 132 -28 q 107 -104 103 -82 q 122 -125 111 -122 q 135 -121 126 -129 z "},"z":{"ha":553,"x_min":10,"x_max":660,"o":"m 122 -133 q 39 -99 69 -133 q 20 -64 26 -85 q 18 -19 14 -43 q 38 34 22 6 q 86 93 54 63 q 142 143 107 114 q 221 204 176 172 q 193 199 207 201 q 164 193 179 197 q 132 197 147 189 q 110 221 117 204 q 108 252 103 236 q 128 278 113 268 q 201 338 165 301 q 264 406 236 374 q 215 402 238 404 q 181 396 193 400 q 126 366 153 386 q 89 336 100 346 q 56 324 75 324 q 24 338 38 324 q 10 370 10 351 q 25 403 11 389 q 38 415 26 406 q 66 438 49 425 q 106 463 83 450 q 151 485 128 476 q 207 494 174 492 q 272 498 240 497 q 329 498 304 499 q 360 497 354 497 q 399 471 388 494 q 394 424 410 446 q 385 412 393 422 q 365 384 378 401 q 333 345 351 367 q 294 301 315 324 q 327 299 311 300 q 358 296 343 299 q 475 361 415 331 q 593 414 535 392 q 629 413 613 421 q 653 386 646 404 q 652 351 660 368 q 626 326 644 333 q 529 284 578 308 q 432 232 481 260 l 432 229 q 392 129 417 179 q 338 35 367 79 q 278 -43 308 -8 q 219 -99 247 -78 q 171 -125 196 -117 q 122 -133 146 -133 m 294 143 q 208 78 246 108 q 151 28 171 47 q 115 -19 121 -1 q 110 -39 108 -36 q 128 -41 113 -42 q 163 -25 143 -40 q 226 40 190 -6 q 294 143 263 85 z "},"A":{"ha":594,"x_min":-131,"x_max":575,"o":"m 532 408 q 565 399 556 422 q 563 343 575 376 q 550 321 557 331 q 515 300 536 301 q 510 299 513 300 q 504 299 507 299 q 500 196 500 242 q 507 146 501 172 q 528 100 513 119 q 533 83 538 89 q 518 74 529 76 q 492 74 507 72 q 467 82 478 76 q 436 99 447 89 q 418 119 425 108 q 411 139 414 126 l 411 140 q 409 153 410 144 q 408 170 408 161 q 407 186 407 179 q 407 194 407 193 q 411 296 407 242 q 351 290 382 293 q 289 281 321 288 q 228 181 253 222 q 199 128 203 139 q 197 125 197 126 q 194 122 196 124 q 113 31 161 65 q 11 -11 64 -4 q -10 -12 4 -12 q -86 14 -60 -12 q -124 115 -131 58 q 4 278 -112 203 q 113 331 56 310 q 232 364 171 351 q 288 453 258 407 q 346 544 318 500 q 399 628 374 589 q 443 696 424 667 q 469 764 461 731 q 483 780 472 776 q 508 779 494 783 q 535 765 522 775 q 554 740 547 754 q 557 695 561 725 q 542 607 553 665 q 528 508 535 561 q 514 401 521 454 q 532 408 521 403 m 114 168 q 131 200 119 179 q 160 249 143 221 q 105 226 132 238 q 54 199 78 214 q -9 146 10 171 q -31 106 -28 121 q -30 94 -31 100 q -22 82 -29 89 q -1 81 -17 79 q 33 92 14 82 q 74 119 53 101 q 114 168 94 138 m 433 508 q 394 446 414 476 q 354 385 374 415 q 378 387 367 386 q 401 389 390 388 l 403 389 q 411 390 407 389 q 419 390 415 390 q 426 449 422 419 q 433 508 429 479 z "},"B":{"ha":579,"x_min":-10,"x_max":556,"o":"m 435 471 q 479 431 458 456 q 515 371 500 407 q 535 240 542 306 q 490 115 529 174 q 394 28 453 60 q 269 -3 336 -3 q 222 4 242 -3 q 190 21 203 11 q 172 42 178 31 q 163 60 165 53 q 168 157 146 106 q 169 160 168 158 q 198 210 178 182 q 240 254 218 238 l 242 256 q 256 264 247 261 q 272 269 267 269 q 305 265 289 271 q 331 249 321 258 q 344 228 342 239 q 335 211 346 217 q 304 186 324 206 q 253 124 264 149 q 249 93 243 100 q 253 90 250 92 q 269 89 256 89 q 351 110 313 89 q 414 168 389 131 q 443 248 439 204 q 429 335 447 292 q 409 370 419 357 q 388 392 399 383 q 333 403 356 407 q 292 389 311 400 q 275 389 282 382 q 265 409 268 396 q 265 438 263 422 q 274 467 267 454 q 285 478 276 471 q 306 493 294 485 l 307 493 q 385 550 354 522 q 432 601 415 578 q 454 644 449 625 q 458 674 460 663 q 456 684 458 682 q 451 688 454 686 q 399 678 438 692 q 299 604 360 664 q 226 511 258 564 q 168 404 193 458 q 125 300 143 350 q 96 215 107 250 q 88 168 90 193 q 89 124 85 143 q 82 105 92 110 q 57 102 72 100 q 25 113 42 104 q -1 133 8 121 q -8 176 -10 144 q 1 261 -6 207 q 13 356 7 304 q 25 457 19 407 q 35 548 31 507 q 43 611 40 589 q 45 644 46 631 q 42 667 44 657 q 48 684 39 679 q 72 688 57 689 q 101 678 86 686 q 126 658 117 671 q 136 635 135 649 q 138 624 138 632 q 135 593 138 610 q 131 553 133 576 q 128 540 129 546 q 126 526 128 533 q 176 601 150 565 q 233 669 201 638 q 366 765 301 738 q 482 775 431 793 q 530 740 511 764 q 551 683 549 715 q 531 586 556 643 q 435 471 506 529 z "},"C":{"ha":561,"x_min":-12,"x_max":575,"o":"m 531 240 q 547 245 538 250 q 563 226 556 240 q 572 194 569 213 q 571 161 575 176 q 553 133 567 144 q 515 108 539 122 q 448 68 483 88 q 374 33 413 49 q 294 8 335 17 q 211 -1 253 -1 q 140 8 171 -1 q 88 30 110 17 q 50 60 65 43 q 25 93 35 76 q -6 181 1 132 q -6 281 -12 229 q 16 383 0 332 q 56 476 32 433 q 126 585 85 531 q 217 683 168 640 q 319 753 265 726 q 425 781 372 781 q 483 767 463 781 q 515 738 504 753 q 532 688 529 715 q 532 637 535 661 q 523 594 529 613 q 514 568 517 575 q 501 551 510 557 q 489 539 499 546 q 458 528 475 531 q 426 528 440 525 q 403 538 411 531 q 401 557 396 546 q 434 649 429 615 q 433 688 439 683 l 425 688 q 355 668 393 688 q 278 615 317 649 q 203 533 239 581 q 138 432 167 486 q 106 358 119 399 q 88 278 93 318 q 85 203 82 239 q 104 140 89 167 q 211 90 133 90 q 288 101 249 90 q 363 129 326 113 q 433 167 400 146 q 494 207 467 188 q 497 208 497 207 q 517 225 508 217 q 531 240 525 233 z "},"D":{"ha":624,"x_min":-12,"x_max":615,"o":"m 607 588 q 591 431 615 504 q 527 296 567 357 q 442 186 488 235 q 361 104 396 138 q 251 31 314 58 q 133 4 188 4 q 72 15 101 4 q 33 53 46 29 q 22 108 19 78 q 97 236 29 169 q 145 277 121 260 q 188 296 169 294 q 227 286 211 296 q 251 263 243 276 q 256 238 258 250 q 242 224 254 226 q 200 200 224 218 q 158 165 176 182 q 128 134 138 146 q 115 114 118 122 q 114 99 111 104 q 138 93 118 92 q 185 104 158 94 q 242 131 213 114 q 296 171 272 147 q 367 242 326 200 q 442 337 407 285 q 499 450 478 389 q 515 578 521 511 q 487 651 511 618 q 428 693 463 683 q 275 613 350 715 q 215 521 243 568 q 164 432 186 474 q 126 358 142 390 q 106 314 111 326 q 94 293 100 301 q 79 279 89 285 q 47 269 65 271 q 15 272 29 268 q -6 285 1 276 q -4 303 -12 293 q 15 347 10 319 q 32 501 32 435 q 29 599 32 567 q 24 639 26 619 q 17 669 21 658 q 21 689 13 682 q 44 697 29 696 q 75 692 58 697 q 104 675 92 686 q 121 634 119 660 q 124 564 122 608 l 124 556 l 124 551 q 160 610 142 581 q 200 668 179 640 q 319 772 254 742 q 451 783 385 801 q 557 711 514 765 q 607 588 600 657 z "},"E":{"ha":614,"x_min":-47,"x_max":588,"o":"m 586 178 q 578 153 588 164 q 554 129 569 142 q 533 111 546 121 q 509 92 521 101 q 487 75 497 82 q 472 67 476 68 q 218 0 363 0 q 86 24 144 0 q -6 94 28 49 q -26 128 -17 108 q -42 174 -36 149 q -46 232 -47 200 q -33 303 -44 264 l -33 304 q 25 406 -14 367 q 108 468 64 446 q 82 515 90 489 q 72 568 74 540 q 85 642 71 606 q 126 710 100 679 q 285 781 189 776 q 371 765 335 782 q 379 763 374 765 q 413 743 397 756 q 439 717 428 731 q 457 691 450 704 q 464 669 464 678 q 453 634 464 653 q 428 603 442 615 q 401 587 414 590 q 388 596 389 583 q 376 638 385 622 q 357 665 368 654 q 329 683 346 675 q 288 689 313 690 q 233 675 256 688 q 194 644 210 663 q 172 606 179 626 q 165 569 165 586 q 211 507 165 522 q 252 504 231 504 q 288 510 274 504 q 306 505 300 514 q 310 481 311 496 q 303 449 310 465 q 283 421 296 432 q 232 408 267 406 q 192 400 217 406 q 140 380 167 394 q 91 341 114 365 q 56 278 68 317 q 68 150 32 196 q 128 107 89 122 q 218 92 167 92 q 342 109 288 92 q 449 163 397 126 q 493 203 481 186 q 517 246 506 221 q 533 256 522 258 q 556 241 544 253 q 576 212 568 229 q 586 178 585 194 z "},"F":{"ha":506,"x_min":-60,"x_max":729,"o":"m 706 807 q 724 798 718 808 q 728 772 729 788 q 718 740 726 757 q 697 713 710 722 q 692 710 694 711 q 688 707 690 708 q 660 703 675 700 q 624 705 644 703 q 571 710 604 707 q 411 708 504 713 q 206 692 318 703 q 197 599 203 657 q 185 479 192 542 q 283 486 229 485 q 404 481 338 488 q 417 479 413 481 q 460 478 439 478 q 490 481 481 478 q 508 474 503 483 q 513 451 514 465 q 506 420 513 436 q 486 394 499 404 q 464 383 475 386 q 438 382 453 381 q 399 386 422 383 q 343 392 376 389 q 249 392 292 394 q 174 383 206 389 q 164 314 168 347 q 156 257 160 281 q 108 84 136 149 q 42 -15 81 19 q 11 -28 29 -28 q -4 -25 4 -28 q -31 -15 -18 -22 q -51 -1 -43 -8 q -59 15 -58 7 q -50 28 -60 24 q -27 47 -39 33 q -5 76 -15 61 q 13 103 6 90 q 24 124 21 117 q 50 208 40 165 q 64 274 60 251 q 70 313 67 290 q 76 361 74 335 q 72 359 74 360 q 63 356 69 358 q 29 338 44 349 q 10 338 18 332 q -1 357 3 344 q -4 385 -6 369 q 4 415 -3 401 q 24 436 11 429 q 36 444 28 442 q 60 455 47 450 q 89 463 72 460 q 102 580 96 522 q 111 678 108 638 l 101 678 q 79 672 90 675 q 57 667 68 669 q -1 642 32 660 q -20 643 -12 636 q -31 663 -28 650 q -33 693 -35 676 q -24 722 -32 710 q -7 739 -18 732 q 11 751 -1 746 q 88 769 39 763 q 136 777 117 775 q 158 781 156 779 q 240 789 188 783 q 356 799 293 794 q 485 805 419 803 q 604 803 550 807 q 649 801 624 801 q 706 807 674 801 z "},"G":{"ha":521,"x_min":-15,"x_max":546,"o":"m 546 701 q 542 669 546 690 q 532 628 538 649 q 517 576 526 603 q 501 552 513 561 q 474 543 489 543 l 471 543 q 443 554 456 544 q 426 579 431 564 q 411 612 422 593 q 384 647 400 631 q 347 675 368 664 q 303 686 326 686 q 219 654 253 686 q 163 578 185 622 q 130 490 140 535 q 118 418 119 444 q 122 309 113 356 q 154 239 132 263 q 229 211 182 211 q 298 222 269 211 q 346 251 326 233 q 376 290 365 269 q 393 331 388 311 q 397 349 396 340 q 399 367 399 357 q 374 406 397 392 q 299 424 351 419 q 283 437 285 425 q 290 463 282 449 q 314 489 299 476 q 347 506 329 501 q 393 505 367 510 q 443 483 419 500 q 456 476 450 481 q 468 465 461 471 q 494 407 492 438 q 489 325 496 376 q 480 267 485 296 q 471 213 475 238 q 464 173 467 189 q 461 156 461 157 l 461 153 q 441 69 453 114 q 405 -17 429 24 q 341 -88 381 -58 q 239 -125 301 -118 l 235 -125 l 213 -125 q 39 -67 97 -125 q 6 -24 15 -46 q -7 15 -4 -1 q -8 69 -15 47 q 12 96 -3 83 q 41 115 26 108 q 66 118 56 121 q 75 100 76 115 q 77 54 72 74 q 90 21 82 35 q 108 -2 99 7 q 122 -15 117 -11 q 166 -30 140 -25 q 225 -32 192 -35 q 315 20 286 -25 q 364 150 344 65 q 235 119 311 119 q 89 178 143 119 q 51 235 65 203 q 31 301 38 267 q 24 368 25 335 q 25 431 22 401 q 28 456 26 436 q 37 504 31 476 q 54 565 43 532 q 83 632 65 599 q 299 779 160 779 q 385 758 346 779 q 451 707 424 738 l 454 715 q 456 736 456 729 q 453 754 456 743 q 463 770 453 767 q 486 771 472 774 q 515 758 500 768 q 538 735 529 749 q 542 726 540 731 q 546 715 544 721 l 546 701 l 546 701 z "},"H":{"ha":582,"x_min":-87,"x_max":618,"o":"m 549 651 q 496 424 514 549 l 503 424 q 540 432 524 428 q 557 427 551 436 q 563 404 563 418 q 558 374 563 390 q 543 346 553 358 q 526 335 539 339 q 506 331 518 331 l 504 331 l 485 331 q 479 240 479 292 q 490 143 479 188 q 511 97 497 122 q 550 53 525 72 q 556 39 558 46 q 545 25 554 32 q 522 13 536 18 q 494 7 508 8 l 486 7 l 478 7 q 460 11 468 7 q 431 42 446 18 q 407 101 417 65 q 392 166 396 132 q 387 231 388 200 q 388 287 386 261 q 392 328 389 313 q 319 321 357 325 q 242 306 281 317 q 240 294 242 297 l 240 292 q 225 208 235 257 q 192 115 215 160 q 131 38 169 69 q 31 7 93 7 q -40 29 -10 7 q -81 90 -69 51 q -84 145 -87 115 q -63 208 -81 175 q -13 274 -46 240 q 72 339 19 307 q 113 360 92 350 q 157 378 135 369 q 167 455 161 413 q 178 541 172 497 q 189 626 183 585 q 199 696 194 667 q 201 738 201 719 q 194 779 201 757 q 199 798 190 792 q 224 804 208 804 q 256 798 239 804 q 285 779 272 792 q 296 744 296 769 q 289 675 296 719 q 281 615 285 649 q 272 546 276 582 q 263 473 268 510 q 254 404 258 436 q 333 416 294 413 q 403 422 371 419 q 424 547 411 488 q 453 658 438 606 q 454 661 454 660 q 456 665 454 663 q 475 726 467 700 q 494 768 483 751 q 498 772 497 771 q 501 776 499 774 q 524 793 510 786 q 559 796 540 799 q 592 785 578 793 q 613 768 607 778 q 608 749 618 758 q 574 707 588 728 q 549 651 560 686 m 31 99 q 99 139 74 99 q 143 272 125 179 q 131 266 136 269 q 119 258 125 263 q 59 214 82 236 q 24 173 36 192 q 9 139 13 154 q 8 115 6 124 q 31 99 13 99 z "},"I":{"ha":185,"x_min":-17,"x_max":203,"o":"m 129 174 q 131 107 126 150 q 154 29 135 64 q 155 14 160 21 q 140 3 150 7 q 115 -1 129 0 q 86 1 100 -1 q 56 14 65 6 q 54 15 56 15 q 34 69 39 29 q 33 150 29 108 q 34 163 33 157 q 36 176 35 169 l 36 178 q 49 283 42 219 q 65 415 57 346 q 82 550 74 483 q 97 665 90 617 q 88 662 92 663 q 78 658 83 661 q 76 658 76 658 q 75 657 76 657 q 70 656 72 656 q 65 654 68 656 q 31 657 46 647 q 5 677 15 663 q -11 706 -6 692 q -14 731 -17 719 q 1 742 -11 742 q 65 753 32 742 q 113 772 93 764 q 133 781 132 781 q 181 776 157 793 q 199 733 203 761 q 195 701 199 732 q 185 622 192 671 q 172 511 179 572 q 156 388 164 450 q 142 269 149 326 q 129 174 135 213 z "},"J":{"ha":251,"x_min":-221,"x_max":261,"o":"m 235 775 q 258 729 261 760 q 249 663 256 708 q 235 558 243 617 q 219 436 228 500 q 201 316 210 372 q 183 216 192 260 q 169 154 175 172 q 112 11 146 64 q 40 -69 78 -42 q -32 -106 3 -97 q -89 -114 -67 -114 l -94 -114 q -103 -112 -100 -114 q -171 -78 -143 -103 q -208 -17 -199 -53 q -203 82 -221 29 q -140 186 -185 135 q -109 221 -124 208 q -76 235 -94 233 q -44 228 -60 236 q -17 210 -28 221 q -3 188 -6 200 q -11 171 0 176 q -67 129 -39 157 q -112 59 -100 92 q -118 7 -124 26 q -112 -6 -117 3 q -87 -21 -107 -15 q 3 21 -36 -21 q 69 140 42 63 q 81 177 75 156 q 94 240 86 199 q 108 315 100 271 q 122 413 115 360 q 137 524 129 465 q 153 644 144 583 q 137 635 146 639 q 119 626 128 631 q 82 610 99 614 q 74 608 79 608 q 67 608 69 608 l 65 608 l 64 608 q 58 609 61 608 q 53 610 56 610 q 25 628 38 615 q 6 656 13 642 q 1 681 0 669 q 15 693 3 692 q 56 703 35 696 q 96 718 78 710 q 159 756 135 739 q 185 772 183 772 q 210 781 196 781 q 235 775 224 782 z "},"K":{"ha":376,"x_min":-101,"x_max":444,"o":"m 432 44 q 442 30 444 40 q 427 8 439 19 q 397 -13 415 -4 q 363 -24 379 -22 q 342 -19 354 -25 q 317 -6 331 -14 q 249 54 278 17 q 198 138 219 92 q 163 235 176 183 q 143 338 150 286 q 86 326 114 328 q 77 254 81 285 q 71 213 74 224 l 71 210 q 59 150 64 176 q 49 103 54 124 q 47 100 47 101 q 13 10 32 43 q -29 -24 -6 -24 q -61 -18 -46 -24 q -86 -4 -76 -12 q -99 15 -96 4 q -92 33 -101 25 q -78 48 -83 42 q -68 61 -72 54 q -60 77 -64 68 q -50 99 -56 86 q -37 145 -43 115 q -21 226 -31 175 q -11 299 -18 244 q 5 422 -4 354 q 22 556 14 489 q 36 667 31 624 q 37 712 39 697 q 31 743 35 726 q 37 762 26 756 q 63 767 47 768 q 97 760 79 767 q 125 740 114 753 q 133 691 136 729 q 121 594 129 653 q 110 511 115 554 q 99 422 104 468 q 260 547 204 440 q 270 570 265 558 q 279 593 275 582 l 279 596 q 292 649 289 626 q 299 688 296 671 q 304 703 301 699 q 324 725 310 719 q 356 734 338 732 q 390 734 375 736 q 413 725 406 732 q 414 706 421 718 q 397 672 404 689 q 383 624 390 656 q 368 568 378 599 q 342 506 358 538 q 232 378 300 424 q 258 240 239 307 q 310 126 278 174 q 353 86 322 113 q 432 44 383 60 z "},"L":{"ha":242,"x_min":-15,"x_max":507,"o":"m 490 26 q 469 5 479 10 q 456 0 460 0 q 414 -1 447 0 q 342 0 381 -1 l 242 0 l 239 0 q 106 51 153 0 q 57 274 43 121 l 57 275 l 58 275 q 67 351 64 319 q 75 413 71 383 q 81 458 78 435 q 87 508 83 481 q 94 570 90 536 q 106 650 99 604 q 70 634 86 639 q 39 633 54 629 q 11 652 24 639 q -8 679 -1 665 q -14 704 -15 693 q 0 717 -12 715 q 58 732 26 721 l 143 778 q 193 775 168 793 q 211 731 215 760 q 193 610 200 660 q 181 522 186 560 q 173 456 176 485 q 167 401 169 428 q 160 340 164 372 q 150 264 157 308 q 174 114 139 153 q 240 92 196 92 q 322 93 279 93 q 397 93 365 93 q 446 98 421 94 q 486 108 471 101 q 502 106 497 113 q 507 85 507 99 q 502 56 507 72 q 490 26 497 40 z "},"M":{"ha":850,"x_min":-12,"x_max":836,"o":"m 785 136 l 785 129 q 788 76 785 106 q 800 21 790 47 q 794 2 804 8 q 769 -4 785 -4 q 735 1 753 -4 q 704 19 717 7 q 696 36 697 24 q 694 40 694 38 q 694 44 694 43 q 693 46 693 44 l 693 47 q 692 53 693 51 q 690 104 689 74 q 693 171 690 135 q 694 175 693 174 q 704 266 697 219 q 718 360 711 313 q 732 455 725 406 q 742 548 739 504 q 741 626 744 592 q 724 676 738 661 q 715 684 721 681 q 697 688 708 688 l 696 688 q 626 638 664 688 q 553 501 589 589 q 527 433 538 467 q 508 372 517 400 q 499 336 504 357 q 491 296 494 315 q 485 260 488 276 q 482 236 482 243 q 477 190 479 213 q 472 149 475 168 q 471 135 471 142 q 469 121 471 128 q 472 67 469 97 q 482 11 475 38 q 476 -8 486 -1 q 449 -13 465 -14 q 415 -6 433 -12 q 386 14 397 1 q 374 54 375 28 q 376 121 372 81 q 378 140 378 131 q 379 157 378 149 q 384 201 382 178 q 389 247 386 224 q 394 288 390 254 q 401 365 397 322 q 409 451 406 408 q 413 519 413 494 q 411 597 414 565 q 405 647 408 628 q 397 676 401 667 q 389 689 392 685 q 383 692 386 692 q 280 616 336 697 q 171 385 224 535 q 142 299 156 342 q 119 217 129 256 q 101 144 108 178 q 88 86 93 111 q 85 48 85 68 q 92 10 85 28 q 85 -9 96 -3 q 58 -15 74 -15 q 24 -8 42 -15 q -4 13 6 -1 q -12 58 -12 24 q -4 157 -11 93 q -3 162 -4 160 q -3 169 -3 164 q 10 288 3 222 q 24 415 17 353 q 36 531 31 478 q 44 614 42 585 q 44 649 47 639 q 36 674 40 660 q 44 694 32 688 q 74 701 56 701 q 112 693 92 701 q 144 671 132 685 q 159 637 157 657 q 157 589 161 617 q 393 785 264 797 q 461 747 435 781 q 489 692 479 725 q 503 615 499 658 q 696 781 589 781 l 699 781 q 794 738 760 778 q 827 667 818 710 q 835 574 836 625 q 827 465 835 524 q 810 346 819 407 q 794 240 801 293 q 785 142 788 188 l 785 136 z "},"N":{"ha":513,"x_min":-24,"x_max":524,"o":"m -24 61 q -19 108 -22 82 q -11 167 -15 133 q 3 278 -6 217 q 19 400 11 339 q 35 515 28 461 q 47 603 42 569 q 48 647 49 631 q 42 679 47 664 q 47 698 38 692 q 72 704 57 704 q 104 699 88 704 q 132 681 121 693 q 141 637 143 667 q 132 553 139 607 q 127 508 129 532 q 121 457 125 485 q 211 634 169 568 q 287 734 253 700 q 349 778 321 768 q 397 789 376 789 q 486 750 451 789 q 516 682 508 722 q 522 592 524 642 q 510 483 519 542 q 489 360 500 424 q 469 253 478 307 q 457 156 461 200 q 457 91 454 121 q 474 38 460 61 q 458 13 481 19 q 408 14 435 7 q 381 28 393 15 q 378 31 381 28 q 367 60 369 40 q 364 101 364 79 q 365 144 364 124 q 367 179 367 165 q 378 275 371 225 q 397 374 386 325 q 413 466 406 417 q 425 560 421 515 q 428 640 429 606 q 414 689 426 674 q 408 694 411 692 q 394 696 406 696 q 377 690 392 696 q 336 653 363 683 q 272 558 310 622 q 186 379 235 494 q 132 242 157 308 q 92 125 107 175 q 76 67 83 100 q 74 15 68 35 q 66 -3 76 3 q 40 -8 56 -8 q 9 -1 25 -8 q -17 18 -7 6 q -21 26 -19 21 q -23 40 -22 32 q -24 61 -24 47 z "},"O":{"ha":514,"x_min":3,"x_max":500,"o":"m 208 1 q 89 60 136 1 q 19 227 36 121 q 25 464 3 333 q 181 764 63 694 q 183 765 182 764 q 186 767 185 767 q 282 794 231 794 q 378 767 333 794 q 470 646 440 728 q 489 453 500 564 q 463 306 482 385 q 408 159 443 226 q 324 47 374 92 q 208 1 275 1 m 286 701 q 267 699 276 701 q 248 692 258 696 q 228 683 238 689 q 201 662 217 676 q 171 620 186 647 q 141 551 156 593 q 117 450 126 510 q 106 331 106 385 q 113 236 106 278 q 133 165 121 194 q 160 119 146 136 q 208 93 182 93 q 275 126 243 93 q 332 210 307 158 q 374 328 357 263 q 397 461 390 394 q 386 604 404 544 q 328 689 368 664 q 292 701 311 699 l 286 701 z "},"P":{"ha":469,"x_min":-43,"x_max":497,"o":"m 81 210 q 71 149 75 174 q 64 106 67 125 q 59 73 61 88 q 56 43 57 58 q 56 -15 53 10 q 34 -30 58 -32 q -12 -14 10 -28 q -32 3 -22 -8 q -39 15 -37 11 q -40 48 -43 28 q -31 104 -37 68 q -23 155 -28 126 q -10 232 -18 183 q -5 269 -8 243 q 3 331 -1 296 q 12 404 7 365 q 22 481 17 443 q 31 552 26 519 q 38 606 35 585 q 38 649 40 632 q 31 685 36 665 q 38 703 28 697 q 63 708 47 708 q 96 700 79 707 q 124 681 113 693 q 133 640 133 669 q 125 558 132 611 q 122 536 125 550 q 156 597 139 568 q 189 653 172 626 q 276 743 225 710 q 376 776 326 776 q 464 740 431 776 q 497 644 497 703 q 467 521 497 586 q 381 395 436 456 q 250 285 326 335 q 81 210 174 236 m 267 603 q 228 536 247 572 q 190 463 208 500 q 153 389 171 425 q 122 322 136 353 q 240 391 188 350 q 328 476 292 432 q 385 565 365 521 q 404 644 404 610 q 394 678 404 674 q 376 683 383 683 q 324 664 354 683 q 267 603 294 644 z "},"Q":{"ha":510,"x_min":-1,"x_max":557,"o":"m 544 74 q 557 60 557 71 q 549 36 557 49 q 526 12 540 24 q 497 -3 513 0 q 429 19 472 -8 q 392 42 410 29 q 351 75 374 56 q 285 19 321 39 q 204 -1 249 -1 q 85 57 135 -1 q 16 225 33 118 q 21 463 -1 332 q 176 761 58 692 q 242 787 211 782 q 278 792 274 792 l 285 792 q 361 774 325 792 q 463 653 431 738 q 485 450 496 568 q 458 301 478 381 q 403 153 439 222 q 419 138 413 143 q 436 126 425 133 q 472 103 457 111 q 513 85 488 96 q 544 74 531 78 m 113 447 q 102 320 101 376 q 111 221 103 264 q 163 256 133 244 q 245 261 203 271 q 326 219 288 251 l 331 215 q 370 331 354 268 q 393 458 386 394 q 392 549 397 510 q 376 618 388 589 q 350 665 365 647 q 319 690 335 682 q 242 681 279 711 q 232 666 239 676 q 219 640 225 656 q 213 603 214 624 q 222 557 213 582 q 248 516 233 538 q 278 485 263 494 q 283 467 288 478 q 264 449 278 457 q 232 438 250 442 q 199 439 214 433 q 164 467 178 446 q 131 531 150 488 q 121 492 125 513 q 113 447 117 471 m 204 92 q 244 103 225 92 q 282 136 263 115 l 265 149 q 196 169 229 181 q 168 135 172 160 q 173 111 167 121 q 188 94 179 101 q 204 92 193 92 z "},"R":{"ha":458,"x_min":-22,"x_max":521,"o":"m 183 329 q 190 340 186 336 q 196 347 193 344 q 204 354 200 351 q 312 435 272 392 q 372 519 351 478 q 399 594 393 560 q 404 650 404 629 q 388 688 404 681 q 334 675 369 693 q 267 608 299 657 q 211 514 240 567 q 157 410 182 461 q 113 318 132 360 q 89 257 94 276 q 84 240 86 250 q 79 217 82 229 q 76 196 78 206 q 74 175 75 186 q 75 132 71 149 q 67 113 78 119 q 41 108 57 107 q 8 116 25 108 q -17 139 -8 124 q -21 160 -21 147 q -22 163 -21 163 q -21 167 -22 164 q -19 212 -21 186 q -11 274 -17 238 q 4 379 -4 324 q 19 485 13 435 q 32 573 26 535 q 40 628 38 611 q 41 658 40 644 q 39 679 42 672 q 45 697 36 692 q 69 700 54 701 q 99 691 83 699 q 125 671 115 683 q 136 625 139 651 q 126 550 133 599 q 158 606 142 578 q 189 658 174 633 q 295 759 233 726 q 413 776 357 792 q 475 732 453 765 q 497 650 497 699 q 440 450 497 543 q 285 293 383 357 q 326 206 300 253 q 397 122 351 158 q 444 96 413 111 q 507 78 476 81 q 519 67 518 76 q 516 47 521 58 q 501 23 511 35 q 478 3 490 11 q 451 -7 468 -7 q 436 -4 444 -7 l 435 -4 q 417 2 426 -1 q 396 13 407 6 q 311 72 346 38 q 253 144 276 107 q 214 219 229 182 q 189 283 199 256 q 183 300 185 292 q 183 329 179 315 z "},"S":{"ha":447,"x_min":-37,"x_max":436,"o":"m 283 440 q 401 291 367 375 q 408 129 436 207 q 336 33 389 67 q 211 -1 283 -1 q 125 12 165 -1 q 53 50 85 25 q 1 109 22 75 q -28 185 -19 143 q -26 287 -37 236 q 14 367 -14 338 q 19 374 18 371 q 26 386 25 381 q 29 400 28 392 q 45 410 32 413 q 72 396 58 408 q 96 362 86 383 q 103 315 106 340 q 95 294 101 303 q 82 278 89 286 q 69 259 75 269 q 61 232 63 249 q 62 217 61 225 q 64 201 63 210 q 113 121 74 151 q 211 90 153 90 q 281 108 253 90 q 321 158 310 126 q 315 256 335 199 q 226 367 294 314 q 198 388 211 378 q 171 407 185 397 q 110 453 139 431 q 62 500 82 475 q 32 555 42 525 q 28 622 22 585 q 98 740 39 697 q 250 783 157 783 q 328 765 293 783 q 386 715 364 747 q 408 664 401 694 q 413 608 415 638 q 399 563 411 578 q 385 551 393 557 q 367 544 379 547 q 334 542 350 540 q 306 551 318 544 q 290 565 294 557 q 292 579 285 572 q 313 607 307 593 q 318 632 318 621 q 315 651 318 643 q 308 665 311 660 q 250 690 288 690 q 119 608 132 690 q 140 553 115 578 q 226 482 164 528 q 254 462 240 472 q 283 440 268 451 z "},"T":{"ha":357,"x_min":-14,"x_max":683,"o":"m 660 786 q 678 779 672 789 q 681 753 683 769 q 669 721 679 738 q 644 694 660 704 q 621 690 636 689 q 585 692 606 690 q 542 698 565 694 q 497 701 519 701 q 492 703 494 703 q 436 702 464 703 q 379 700 408 701 l 300 60 q 298 13 297 38 q 301 -29 299 -11 q 292 -47 304 -42 q 265 -49 281 -51 q 232 -38 249 -47 q 208 -15 215 -29 q 204 -8 206 -11 q 203 0 203 -4 q 201 14 201 4 q 203 40 201 25 q 208 79 206 56 l 285 696 l 278 696 q 185 691 229 693 q 106 689 142 689 l 92 689 q 51 684 72 686 q 15 676 31 682 q -4 681 3 672 q -12 706 -11 690 q -10 739 -14 721 q 4 769 -6 757 q 31 785 14 781 l 35 785 q 82 785 53 788 q 156 783 111 783 l 160 783 q 215 785 186 785 q 274 788 243 786 q 465 795 371 793 q 621 786 558 797 q 660 786 647 783 z "},"U":{"ha":521,"x_min":-8,"x_max":531,"o":"m 478 301 q 471 222 474 263 q 468 147 468 182 q 471 82 468 111 q 481 36 474 53 q 483 1 489 13 q 462 -12 476 -10 q 430 -9 447 -15 q 400 10 413 -3 q 394 15 397 13 q 389 22 392 18 q 381 60 382 33 q 383 106 381 86 q 201 -24 308 -24 q 102 -2 139 -24 q 46 43 65 19 q 8 112 19 74 q -6 184 -3 150 q -6 243 -8 218 q -3 275 -4 268 q 5 333 -1 290 q 19 431 11 376 q 35 542 28 485 q 50 643 43 599 q 57 703 54 668 q 57 757 60 738 q 64 775 54 769 q 88 778 74 781 q 119 768 103 776 q 144 746 135 760 q 154 696 160 725 q 140 613 149 667 q 125 512 133 567 q 110 406 117 457 q 97 315 103 356 q 89 261 90 275 l 89 260 q 85 229 86 249 q 87 187 85 210 q 96 142 89 164 q 117 103 103 119 q 201 69 143 69 q 256 92 231 69 q 303 153 282 115 q 343 238 325 190 q 374 335 361 286 q 397 432 388 385 q 413 517 407 479 q 422 590 419 561 q 428 646 425 619 q 428 761 436 724 q 435 781 425 775 q 459 784 444 786 q 490 774 474 782 q 518 753 507 767 q 527 701 531 738 q 517 603 524 665 l 517 600 q 511 556 514 579 q 506 508 508 533 q 504 506 506 508 q 491 403 497 456 q 478 301 485 350 z "},"V":{"ha":428,"x_min":-6,"x_max":453,"o":"m 190 -3 q 181 -8 186 -6 q 158 -12 172 -12 q 136 -4 147 -12 q 126 4 131 0 q 99 49 114 17 q 67 157 83 81 q 48 260 57 201 q 31 392 39 319 q 18 503 24 450 q 8 600 13 556 q 7 606 8 604 q -2 697 1 665 q 10 749 -6 729 q 35 768 19 761 q 66 776 51 775 q 90 772 81 778 q 96 754 99 767 q 93 737 93 747 q 93 715 93 726 q 95 683 93 710 q 101 614 97 656 q 109 519 104 572 q 121 410 114 465 q 149 219 136 288 q 172 117 163 150 q 218 217 190 147 q 282 414 246 286 q 305 500 294 457 q 324 581 315 543 q 340 649 333 618 q 351 700 347 679 q 356 738 354 719 q 357 767 358 756 q 365 783 356 779 q 388 785 374 788 q 415 775 401 783 q 439 754 429 767 q 449 715 453 736 l 449 713 q 444 688 447 701 q 438 658 442 675 q 410 540 426 613 q 371 389 393 468 q 315 208 340 279 q 266 92 289 136 q 224 28 243 49 q 190 -3 206 7 z "},"W":{"ha":928,"x_min":-25,"x_max":910,"o":"m 893 478 q 811 71 910 194 q 622 -17 740 -17 q 488 44 544 -17 q 403 217 435 101 q 200 -15 333 -7 q 194 -17 199 -17 l 192 -17 l 189 -17 l 185 -17 q 58 50 106 -12 q 21 464 -25 163 q 46 598 32 538 q 69 694 60 658 q 72 706 71 701 q 75 717 74 711 q 81 733 79 732 q 97 753 83 744 q 126 765 110 763 q 174 761 153 771 q 185 735 196 751 q 171 703 178 724 q 157 663 164 683 q 122 511 138 593 q 101 351 107 429 q 101 206 94 272 q 133 106 107 140 q 192 76 153 79 q 274 146 236 79 q 338 335 313 213 q 356 444 349 390 q 367 538 363 497 q 374 619 371 592 q 389 658 378 647 q 417 675 401 669 q 447 679 433 681 q 469 672 461 678 q 472 653 476 665 q 466 624 467 640 q 463 578 465 608 q 464 463 461 529 q 476 328 467 396 q 505 201 486 261 q 556 107 524 142 q 622 76 585 76 q 738 129 697 76 q 787 242 772 172 q 802 390 801 313 q 795 541 803 467 q 778 668 788 615 q 768 713 774 690 q 757 746 763 735 q 760 764 753 757 q 781 773 768 771 q 811 772 794 775 q 840 760 828 769 q 850 750 846 756 q 859 726 853 746 q 869 682 865 706 q 883 594 876 647 q 893 478 890 542 z "},"X":{"ha":538,"x_min":-12,"x_max":583,"o":"m 513 782 q 544 773 529 782 q 569 753 560 764 q 581 732 579 743 q 571 717 583 721 q 529 690 553 710 q 486 656 506 671 q 338 475 414 586 q 413 336 375 413 q 485 165 450 260 l 489 157 q 515 88 504 114 q 524 42 525 61 l 524 39 q 522 36 522 39 q 521 32 522 33 l 521 29 q 519 26 521 29 q 518 25 519 26 q 517 22 518 22 q 515 19 517 21 q 492 -5 507 6 q 464 -19 478 -15 q 440 -21 450 -24 q 432 -6 431 -18 q 431 29 433 10 q 419 75 428 49 q 352 247 388 169 q 281 389 317 325 q 192 233 233 313 q 124 78 151 153 q 111 35 117 57 q 104 -4 106 13 q 91 -18 104 -17 q 61 -12 78 -19 q 31 9 44 -4 q 14 38 17 22 q 24 85 11 53 q 58 164 38 118 q 134 319 90 239 q 226 476 178 400 q 133 601 176 553 q 65 672 90 649 q 33 697 50 685 q -1 717 15 710 q -11 733 -12 722 q -1 754 -10 743 q 24 774 8 765 q 54 783 39 783 q 105 763 79 785 q 168 701 131 742 q 172 696 171 699 q 224 638 196 671 q 283 560 253 604 q 360 657 322 613 q 438 736 399 701 q 477 772 461 760 q 513 782 493 783 z "},"Y":{"ha":507,"x_min":-75,"x_max":510,"o":"m 503 738 q 506 692 510 728 q 493 588 503 656 q 481 497 488 546 q 469 405 475 449 q 459 326 464 361 q 451 274 454 290 q 437 198 444 239 q 422 131 429 157 q 165 -147 343 -147 q 78 -133 117 -147 q 13 -100 40 -119 q 9 -98 10 -99 q 6 -96 8 -97 q -51 -38 -28 -72 q -74 22 -75 -4 q -60 62 -74 43 q -31 92 -47 81 q -2 105 -15 103 q 11 93 11 107 q 17 50 11 69 q 31 16 22 31 q 49 -8 40 1 q 65 -24 58 -18 q 106 -45 82 -36 q 165 -54 131 -54 q 332 156 271 -54 q 336 172 333 158 q 343 203 339 185 q 351 245 347 222 q 360 289 356 268 q 361 300 361 293 q 364 315 361 307 q 303 242 335 274 q 238 192 271 210 q 194 173 214 178 q 157 168 175 168 q 128 172 140 168 q 104 179 115 175 q 39 239 60 200 q 11 322 18 278 q 7 408 4 367 q 13 475 10 450 q 35 595 21 538 q 67 708 50 653 q 71 736 69 724 q 72 758 72 749 q 82 775 72 771 q 106 775 92 779 q 135 760 121 771 q 157 736 149 750 q 158 682 168 713 q 132 593 149 651 q 129 586 129 588 q 115 526 121 556 q 106 464 108 496 q 142 264 85 290 q 192 272 163 256 q 250 317 219 288 q 308 391 281 347 q 360 491 336 435 q 397 617 383 547 q 408 697 406 664 q 408 753 411 729 q 417 772 406 767 q 443 774 428 776 q 475 763 458 772 q 503 738 492 753 z "},"Z":{"ha":669,"x_min":-85,"x_max":671,"o":"m 664 181 q 663 165 664 171 q 657 147 663 158 q 648 133 656 144 q 627 107 640 122 q 593 74 614 92 q 544 40 572 56 q 474 11 515 24 q 379 -1 432 -1 q 292 8 339 -1 q 192 40 244 17 q 125 56 156 56 q 70 51 94 57 q 30 35 46 44 q 6 19 14 25 q -1 14 1 15 q -15 -3 -8 4 q -24 -17 -21 -11 q -41 -26 -31 -28 q -61 -13 -51 -24 q -78 13 -71 -3 q -83 46 -85 29 q -76 69 -83 58 q -58 92 -69 81 q -28 119 -46 104 q 11 153 -11 133 q 17 157 15 157 q 135 273 67 206 q 275 413 204 340 q 407 551 354 494 q 492 646 460 607 q 431 640 463 640 q 367 646 399 639 q 329 654 347 649 q 292 665 311 660 q 227 683 256 676 q 176 688 199 689 q 136 676 154 688 q 103 640 118 665 q 88 599 90 614 q 83 568 86 583 q 68 553 81 553 q 41 565 56 554 q 14 592 26 575 q 0 629 1 610 q 10 674 -3 649 q 47 722 24 699 q 113 768 78 756 q 183 781 147 781 q 253 772 218 781 q 318 754 288 764 q 353 744 336 749 q 386 736 369 739 q 438 731 411 731 q 489 738 464 732 q 535 751 514 743 q 571 767 557 758 q 594 784 583 775 q 608 804 604 793 q 622 814 613 815 q 642 803 632 813 q 660 778 653 793 q 669 747 668 763 q 651 703 671 726 q 627 665 644 689 q 575 601 610 642 q 484 498 540 560 q 342 349 428 436 q 237 243 289 294 q 140 149 185 192 q 226 125 179 144 q 345 93 293 97 q 437 98 397 89 q 504 124 476 107 q 549 158 532 142 q 578 200 569 182 q 594 235 588 218 q 610 247 599 247 q 632 237 621 246 q 653 213 643 228 q 664 181 663 197 z "},"d":{"ha":457,"x_min":-1,"x_max":571,"o":"m 368 522 q 361 478 364 503 q 356 429 358 453 q 353 387 354 406 q 353 361 353 368 q 355 290 353 322 q 364 233 357 258 q 417 298 385 253 q 481 393 450 343 q 509 415 490 410 q 543 410 528 421 q 565 381 560 400 q 560 346 571 363 q 540 314 558 344 q 494 246 521 283 q 417 156 450 183 q 357 129 385 129 q 320 139 342 129 q 283 181 299 149 q 281 188 281 186 q 276 202 278 194 q 271 218 274 210 q 268 229 268 226 q 128 122 200 122 q 57 147 88 122 q 11 215 26 171 q 0 281 1 244 q 7 351 -1 317 q 32 417 15 386 q 76 468 49 449 q 172 513 125 504 q 272 511 219 521 q 276 537 274 526 q 279 557 278 547 q 283 577 281 567 q 289 604 285 588 q 292 630 292 619 q 292 649 293 640 q 301 666 290 661 q 325 668 311 671 q 353 656 339 665 q 376 633 368 647 q 381 595 385 619 q 368 522 376 571 m 208 311 q 238 371 225 342 q 258 419 251 400 q 214 424 233 424 q 170 416 189 424 q 132 394 151 408 q 110 367 119 385 q 97 329 101 350 q 93 285 93 308 q 99 244 93 263 q 115 219 107 222 q 128 215 124 215 q 156 233 135 215 q 208 311 176 251 z "},"?":{"ha":399,"x_min":42,"x_max":357,"o":"m 342 542 q 357 482 357 514 q 340 425 357 450 q 314 388 328 404 q 288 358 300 372 q 274 345 281 351 q 264 332 268 339 q 251 286 250 308 q 257 243 251 264 q 248 228 260 232 q 219 229 236 225 q 184 244 201 233 q 158 275 167 256 q 153 306 153 286 q 165 346 154 325 q 190 388 175 369 q 219 421 204 406 q 242 446 231 433 q 263 474 253 458 q 264 483 264 476 q 261 497 264 490 q 240 514 254 507 q 203 521 225 521 q 179 518 189 521 q 161 511 169 515 q 149 492 151 503 q 147 468 146 481 q 150 442 147 456 q 156 415 153 428 q 138 396 158 401 q 93 397 117 390 q 88 399 90 399 q 82 401 85 400 q 47 433 58 410 q 42 460 43 443 q 46 497 42 478 q 51 519 49 508 q 61 540 54 531 q 117 592 81 574 q 201 611 153 611 q 259 604 235 611 q 300 587 283 597 q 326 564 317 576 q 342 542 336 551 m 201 215 q 235 201 221 215 q 249 168 249 188 q 235 135 249 151 q 201 122 222 122 q 169 135 182 122 q 156 168 156 149 q 169 201 156 189 q 201 215 183 215 z "},"[":{"ha":281,"x_min":42,"x_max":247,"o":"m 213 139 q 236 115 228 131 q 246 83 244 99 q 243 57 247 68 q 229 49 239 46 q 192 52 213 51 q 154 54 172 53 l 88 54 q 55 67 68 54 q 42 100 42 81 l 42 558 q 55 591 42 578 q 88 604 68 604 l 185 604 l 189 604 q 205 606 197 606 q 219 608 213 607 q 235 600 231 611 q 238 572 240 589 q 228 538 236 556 q 203 511 219 521 q 177 503 192 504 q 133 504 163 503 l 133 147 l 185 147 q 203 143 194 147 q 213 139 207 142 z "},"]":{"ha":288,"x_min":40,"x_max":246,"o":"m 200 608 q 233 595 219 608 q 246 563 246 582 l 246 104 q 233 72 246 85 q 200 58 219 58 l 103 58 q 81 57 92 57 q 60 54 69 57 q 46 62 50 51 q 44 88 42 72 q 53 119 46 103 q 76 143 61 135 q 78 144 78 143 q 79 144 78 144 q 101 151 90 151 l 107 151 l 124 151 l 153 151 l 153 514 q 103 513 119 513 q 76 521 88 514 q 53 547 61 531 q 42 578 44 563 q 45 605 40 594 q 60 614 50 615 q 81 610 69 611 q 104 608 93 610 l 200 608 l 200 608 z "},"\\":{"ha":533,"x_min":40,"x_max":492,"o":"m 490 117 q 491 105 492 110 q 489 94 490 100 q 476 67 485 79 q 459 48 468 56 q 441 40 450 40 q 428 47 432 39 q 402 87 418 67 q 372 125 386 107 l 101 474 q 100 475 101 474 q 56 531 68 514 q 43 560 44 547 q 47 594 40 578 q 63 620 53 610 q 85 633 74 631 q 101 628 96 636 q 130 588 113 608 q 158 553 147 568 l 432 200 q 476 146 464 164 q 490 117 489 128 z "},"\"":{"ha":318,"x_min":40,"x_max":279,"o":"m 138 746 q 138 729 138 738 q 139 710 138 721 q 131 695 140 700 q 106 692 121 690 q 76 703 92 694 q 51 726 60 711 q 44 757 44 739 l 44 811 q 45 830 46 819 q 42 851 44 840 q 51 865 40 861 q 76 868 61 869 q 106 858 90 867 q 131 835 122 850 q 138 807 138 822 l 138 806 l 138 751 l 138 746 m 278 711 q 269 696 279 700 q 245 693 260 692 q 215 703 231 694 q 190 726 199 711 q 184 749 185 738 q 185 785 183 761 l 185 796 l 185 811 q 185 828 185 819 q 182 846 185 838 q 190 860 179 856 q 215 863 200 865 q 245 853 229 861 q 271 831 261 846 q 278 810 276 819 q 278 783 279 800 q 276 767 276 774 l 276 743 q 276 728 276 736 q 278 711 276 719 z "},"(":{"ha":285,"x_min":42,"x_max":249,"o":"m 240 103 q 244 85 249 96 q 226 66 239 75 q 194 53 213 57 q 160 54 176 49 l 151 58 q 147 61 149 60 q 143 64 146 63 q 107 108 125 81 q 106 110 107 110 q 106 113 106 111 q 63 199 83 144 q 42 328 42 253 q 67 472 42 414 q 115 558 92 529 q 136 585 126 574 q 158 601 146 597 q 194 602 176 607 q 225 588 213 597 q 242 568 238 579 q 239 551 247 557 q 208 526 221 539 q 185 499 196 513 q 152 435 169 476 q 135 328 135 393 q 153 222 135 265 q 188 157 171 179 q 211 130 199 143 q 240 103 224 117 z "},")":{"ha":286,"x_min":40,"x_max":244,"o":"m 244 329 q 223 194 244 249 q 179 107 201 139 q 156 75 167 89 q 129 57 144 61 q 94 56 113 51 q 63 69 76 60 q 45 88 50 78 q 49 104 40 99 q 67 120 58 113 q 82 136 75 128 l 82 135 l 82 136 q 93 148 89 143 q 103 160 97 153 q 135 224 118 182 q 151 329 151 265 q 140 413 151 376 q 115 474 129 449 q 81 524 100 503 q 75 531 76 528 q 62 542 68 538 q 49 554 56 547 q 44 568 40 560 q 58 585 47 576 q 83 599 68 593 q 114 604 97 606 q 128 601 119 604 q 154 582 143 596 q 179 550 165 568 q 180 548 179 549 q 181 546 181 547 q 224 459 203 514 q 244 329 244 404 z "},"*":{"ha":317,"x_min":42,"x_max":275,"o":"m 275 813 q 268 789 275 799 q 250 774 261 779 q 240 729 260 749 q 211 717 228 717 q 203 717 207 717 q 196 719 200 718 q 181 701 190 708 q 158 694 171 694 q 135 701 144 694 q 119 719 125 708 q 104 717 111 717 q 75 729 88 717 q 65 774 57 750 q 42 813 42 785 q 65 850 42 838 q 75 894 57 874 q 119 904 94 914 q 135 922 125 915 q 158 929 144 929 q 181 922 171 929 q 196 904 190 915 q 240 894 222 914 q 250 850 260 875 q 268 835 261 844 q 275 813 275 825 z "},"'":{"ha":182,"x_min":42,"x_max":143,"o":"m 142 711 q 133 697 143 701 q 108 694 122 693 q 77 704 93 696 q 51 728 61 713 q 45 751 46 739 q 46 786 44 763 q 47 815 46 800 q 43 847 47 831 q 52 862 42 857 q 77 865 63 867 q 108 855 92 863 q 133 832 124 847 q 141 810 140 821 q 139 781 142 800 l 139 747 q 139 731 139 739 q 142 711 139 722 z "},",":{"ha":204,"x_min":38,"x_max":161,"o":"m 160 185 q 153 165 160 175 l 131 132 q 118 111 124 121 q 107 89 113 101 q 94 81 104 81 q 74 88 85 81 q 53 108 63 96 q 42 136 44 121 q 47 174 38 157 l 75 215 q 76 218 75 217 q 94 253 89 235 q 109 261 99 263 q 131 250 119 260 q 152 226 143 240 q 161 193 161 211 q 160 189 161 190 q 160 185 160 188 z "},".":{"ha":176,"x_min":42,"x_max":135,"o":"m 88 111 q 56 124 68 111 q 42 157 42 138 q 56 190 42 176 q 88 203 68 203 q 121 190 108 203 q 135 157 135 174 q 121 124 135 140 q 88 111 108 111 z "},"+":{"ha":554,"x_min":40,"x_max":513,"o":"m 494 364 q 508 356 504 365 q 512 333 513 347 q 504 304 511 319 q 483 279 497 289 q 458 269 471 269 q 439 268 450 268 q 408 268 428 268 l 408 269 l 325 269 l 325 188 l 325 181 q 325 166 325 174 q 326 149 325 158 q 319 134 328 139 q 298 130 311 129 q 270 138 285 131 q 246 157 256 144 q 239 169 240 163 q 233 189 235 178 q 232 222 232 200 l 232 269 l 101 269 l 99 269 q 80 268 89 268 q 60 265 71 268 q 45 274 50 264 q 42 299 40 285 q 53 330 44 314 q 76 356 61 346 q 89 360 82 360 q 101 361 93 361 l 232 361 l 232 443 q 233 445 232 444 q 233 447 233 446 q 233 466 233 457 q 231 485 232 475 q 238 499 228 494 q 263 502 249 504 q 294 492 278 500 q 318 468 310 483 q 322 461 319 467 q 325 443 325 450 l 325 442 q 325 415 326 432 l 325 361 l 454 361 q 474 362 464 361 q 494 364 483 363 z "},"-":{"ha":464,"x_min":43,"x_max":422,"o":"m 404 303 q 388 289 397 294 q 367 283 378 283 q 320 283 343 283 q 270 283 297 283 q 210 283 243 283 q 136 283 178 283 l 126 283 l 104 283 l 100 283 q 83 283 92 283 q 63 281 74 282 q 48 289 53 279 q 45 313 43 299 q 56 344 47 328 q 79 368 64 360 q 103 375 86 374 q 133 375 121 376 l 365 375 l 371 375 q 388 376 379 375 q 404 378 396 376 q 417 372 413 379 q 422 353 422 365 q 418 328 422 342 q 404 303 414 314 z "},"/":{"ha":406,"x_min":42,"x_max":364,"o":"m 364 569 q 360 554 364 565 q 351 531 356 543 q 341 510 346 519 q 336 500 336 500 l 139 103 q 127 78 133 90 q 117 51 121 67 q 103 42 114 42 q 79 49 92 42 q 56 71 67 57 q 43 101 44 85 q 50 131 42 115 q 69 171 58 147 l 260 556 q 275 587 267 569 q 290 625 283 604 q 305 634 293 635 q 330 625 317 633 q 353 602 343 617 q 364 569 364 588 z "},":":{"ha":176,"x_min":42,"x_max":135,"o":"m 88 313 q 121 299 107 313 q 135 267 135 285 q 121 233 135 247 q 88 219 107 219 q 56 233 69 219 q 42 267 42 247 q 56 299 42 285 q 88 313 69 313 m 88 368 q 56 382 68 368 q 42 414 42 394 q 56 447 42 435 q 88 461 69 461 q 121 447 107 461 q 135 414 135 433 q 121 382 135 396 q 88 368 108 368 z "},";":{"ha":204,"x_min":38,"x_max":163,"o":"m 115 371 q 82 385 96 371 q 69 417 69 397 q 82 450 69 438 q 115 464 99 464 q 149 450 135 464 q 163 417 163 436 q 149 385 163 399 q 115 371 136 371 m 96 310 q 110 318 100 319 q 133 307 121 317 q 153 283 144 297 q 163 250 163 268 q 161 242 163 244 q 154 222 161 232 l 132 189 q 119 168 125 178 q 108 146 114 158 q 96 138 106 138 q 75 146 86 139 q 55 166 64 153 q 43 194 46 179 q 50 231 38 214 l 76 272 q 79 275 79 275 q 88 291 83 282 q 96 310 93 300 z "},"<":{"ha":386,"x_min":42,"x_max":349,"o":"m 301 343 q 299 342 300 343 q 297 342 299 342 l 208 306 l 299 267 q 301 265 299 265 q 317 259 310 263 q 333 253 325 256 q 344 238 343 250 q 337 214 344 226 q 316 190 329 201 q 285 178 303 179 q 259 181 271 175 q 217 200 247 188 l 217 201 l 69 265 q 49 283 57 271 q 42 308 42 294 q 71 350 44 339 l 263 428 q 275 431 271 431 q 290 431 282 433 q 320 419 307 429 q 341 396 333 408 q 349 372 349 383 q 339 358 349 361 q 319 351 328 354 q 301 343 310 347 z "},">":{"ha":386,"x_min":39,"x_max":343,"o":"m 315 342 q 335 324 328 336 q 343 299 343 313 q 335 272 343 283 q 314 256 326 261 l 171 199 q 168 197 171 199 q 130 181 142 186 q 107 176 118 176 l 106 176 q 92 179 96 176 q 65 194 76 183 q 47 217 53 206 q 41 240 40 229 q 50 253 42 250 q 121 279 86 264 l 176 301 l 88 340 q 85 342 86 340 q 68 348 76 344 q 49 354 60 351 q 39 367 39 357 q 46 390 39 378 q 66 414 53 403 q 96 428 79 425 q 115 428 107 431 q 136 422 125 426 q 167 407 147 417 q 169 406 168 407 q 171 406 169 406 l 315 342 l 315 342 z "},"=":{"ha":450,"x_min":42,"x_max":410,"o":"m 65 354 q 51 362 56 353 q 48 384 47 371 q 55 412 49 397 q 74 436 61 426 q 99 449 83 446 q 119 451 107 451 q 151 450 132 450 l 156 450 l 319 450 q 351 450 333 451 q 390 453 369 449 q 405 444 400 454 q 408 418 410 433 q 399 387 407 403 q 374 363 390 371 q 351 357 364 357 l 346 357 q 331 356 339 356 q 310 357 322 357 l 106 357 l 101 357 q 84 356 93 357 q 65 354 75 356 m 390 319 q 404 313 400 321 q 408 291 408 304 q 402 263 408 278 q 385 238 396 247 q 351 224 368 224 l 347 224 l 319 224 l 106 224 l 101 224 q 81 224 90 224 q 60 221 71 224 q 46 229 50 219 q 43 253 42 239 q 53 284 44 268 q 76 308 61 300 q 92 314 85 314 q 106 317 100 317 l 331 317 l 340 317 l 351 317 l 354 317 q 372 317 363 317 q 390 319 381 317 z "},"@":{"ha":528,"x_min":40,"x_max":486,"o":"m 468 411 q 478 378 474 399 q 485 331 483 357 q 481 278 486 306 q 461 226 475 250 q 420 187 447 207 q 343 165 393 167 q 315 176 326 165 q 304 188 308 181 q 296 206 300 194 q 266 191 281 194 q 240 188 251 188 q 198 198 217 188 q 168 226 179 208 q 171 349 136 276 q 210 398 186 383 q 253 415 233 413 q 314 412 285 421 q 354 393 343 403 q 368 364 368 379 q 368 343 369 356 q 369 302 368 328 q 372 256 369 276 q 383 263 379 258 q 390 271 388 268 q 399 298 397 282 q 401 329 401 314 q 398 357 400 344 q 393 376 396 369 q 392 381 392 378 q 348 420 381 406 q 267 435 315 435 q 202 421 228 435 q 160 387 176 407 q 135 344 143 367 q 126 303 128 321 q 131 249 124 275 q 154 208 139 224 q 206 181 174 188 q 219 178 213 179 q 244 176 225 178 q 262 173 253 175 q 274 168 271 171 q 293 144 286 158 q 301 117 300 129 q 299 96 303 104 q 285 89 294 88 q 258 92 271 92 q 233 93 246 92 q 145 114 179 96 q 93 151 111 132 q 53 222 65 181 q 43 308 40 263 q 61 383 46 346 q 104 451 76 421 q 172 499 132 481 q 267 518 213 518 q 358 506 321 518 q 417 476 394 493 q 452 442 440 460 q 468 411 464 424 m 242 271 q 263 292 251 271 q 281 333 274 313 q 264 332 275 335 q 256 327 261 331 q 246 314 251 324 q 237 285 238 294 q 238 272 236 275 q 242 271 239 271 z "},"!":{"ha":183,"x_min":43,"x_max":144,"o":"m 93 224 q 126 210 113 224 q 140 176 140 196 q 126 143 140 160 q 93 131 114 131 q 61 143 74 131 q 47 176 47 160 q 61 210 47 196 q 93 224 75 224 m 47 542 l 47 544 l 47 571 l 47 575 q 47 594 47 585 q 44 611 47 603 q 51 624 43 619 q 73 628 60 629 q 100 622 86 628 q 125 604 114 617 q 139 574 138 590 q 141 553 142 563 q 140 524 140 543 l 140 353 l 140 351 q 141 313 142 328 q 143 279 140 299 q 135 265 144 269 q 113 262 126 261 q 85 268 100 263 q 61 286 71 274 q 47 318 49 299 q 47 340 46 326 q 47 369 47 353 l 47 542 z "},"#":{"ha":565,"x_min":40,"x_max":528,"o":"m 494 325 q 511 313 508 328 q 508 280 514 299 q 488 245 501 261 q 454 229 474 229 l 375 229 l 364 183 q 363 181 364 182 q 363 176 363 179 q 358 159 360 168 q 357 140 357 150 q 340 126 354 125 q 309 139 325 128 q 281 168 293 150 q 274 206 269 186 l 279 229 l 236 229 q 226 186 228 193 q 222 176 224 179 q 219 160 219 168 q 217 142 218 151 q 208 131 217 133 q 187 132 199 129 q 163 144 175 135 q 143 165 150 153 q 135 206 131 182 l 140 229 l 132 229 l 121 229 l 101 229 l 97 229 q 78 229 88 229 q 58 226 69 229 q 44 235 49 225 q 42 260 40 246 q 51 290 43 275 q 75 314 60 306 q 77 315 76 315 q 79 317 78 315 q 101 322 90 322 l 104 322 l 128 322 l 161 322 l 172 369 l 117 369 q 97 369 106 369 q 76 367 88 368 q 63 374 67 365 q 59 397 58 383 q 67 425 60 410 q 86 450 74 440 q 117 463 99 463 l 119 463 l 150 463 l 194 463 l 208 522 q 216 554 213 539 q 221 589 219 569 q 235 602 221 603 q 267 590 250 601 q 296 561 283 579 q 304 525 308 543 l 289 463 l 333 463 q 342 503 339 489 q 348 526 346 518 q 351 538 350 533 q 353 546 351 542 q 358 566 356 557 q 360 586 360 575 q 376 599 361 600 q 407 588 390 599 q 435 560 424 578 q 443 525 447 543 l 429 463 l 450 463 l 458 463 l 469 463 l 472 463 q 490 463 481 463 q 508 465 499 463 q 524 453 521 468 q 522 420 528 439 q 503 385 517 401 q 469 369 490 369 l 407 369 l 396 322 l 454 322 q 460 321 458 322 q 494 325 475 321 m 301 322 l 313 369 l 268 369 l 257 322 l 301 322 z "},"$":{"ha":358,"x_min":40,"x_max":318,"o":"m 229 390 q 277 341 261 365 q 299 295 293 317 q 305 256 306 274 q 300 226 304 239 q 232 153 285 178 l 232 124 l 232 121 q 233 99 233 110 q 235 78 233 89 q 226 64 236 68 q 203 62 217 60 q 174 72 189 64 q 151 93 160 79 q 140 124 140 107 l 140 146 q 78 176 104 153 q 59 200 67 188 q 46 228 51 213 q 42 249 43 238 q 42 268 40 261 q 57 299 43 286 q 88 319 71 313 q 118 326 104 326 q 131 315 132 325 q 128 274 128 297 q 147 240 129 251 q 182 235 163 232 q 211 254 206 238 q 206 280 214 264 q 171 318 199 296 q 152 333 161 326 q 135 346 143 339 q 102 372 118 358 q 75 401 86 385 q 58 436 64 417 q 57 481 53 456 q 84 545 63 519 q 140 582 106 571 l 140 608 q 140 624 140 611 q 138 647 140 636 q 144 660 136 656 q 166 665 153 665 q 193 658 179 664 q 218 642 207 653 q 232 615 229 629 q 233 602 233 608 q 233 585 233 596 q 288 554 265 576 q 318 478 318 521 q 315 458 318 468 q 306 442 313 449 q 269 416 290 422 q 240 424 247 410 q 235 444 236 433 q 231 463 233 454 q 224 481 229 472 q 206 496 218 489 q 201 497 204 496 q 197 497 199 497 q 157 488 164 497 q 149 467 150 478 q 153 453 147 460 q 192 421 158 446 q 209 406 200 414 q 229 390 218 399 z "},"%":{"ha":726,"x_min":42,"x_max":685,"o":"m 563 386 q 603 378 582 386 q 643 356 625 371 q 673 320 661 342 q 685 269 685 299 q 651 175 685 210 q 557 140 617 140 l 556 140 q 517 149 538 142 q 480 170 497 156 q 451 208 463 185 q 439 264 439 231 q 450 316 439 293 q 478 355 461 339 q 518 378 496 371 q 563 386 540 386 m 558 233 q 585 241 578 233 q 592 269 592 249 q 578 289 592 285 q 563 293 565 293 q 556 292 561 293 q 546 289 551 292 q 536 281 540 286 q 532 264 532 275 q 535 246 532 250 q 543 239 539 242 q 558 233 553 233 m 289 415 q 254 322 289 356 q 160 288 219 288 l 158 288 q 120 295 140 288 q 83 317 100 303 q 53 355 65 332 q 42 411 42 378 q 53 463 42 440 q 81 502 64 486 q 121 526 99 518 q 167 533 143 533 q 208 526 186 533 q 247 503 229 518 q 277 467 265 489 q 289 415 289 444 m 161 381 q 189 388 182 381 q 196 415 196 396 q 183 435 196 431 q 167 440 169 440 q 160 440 165 440 q 149 436 154 439 q 139 428 143 433 q 135 411 135 422 q 139 392 135 397 q 147 385 143 388 q 161 381 156 381 m 276 103 q 274 100 275 101 q 272 97 274 99 q 257 68 263 82 q 243 60 254 58 q 220 70 232 61 q 199 94 208 79 q 189 126 189 108 q 196 152 189 140 q 218 189 203 164 l 222 193 l 454 581 q 469 608 461 593 q 483 640 478 624 q 495 649 486 649 q 515 644 504 650 q 536 628 526 639 q 551 604 546 618 q 551 568 560 588 q 540 544 547 557 q 518 508 532 532 l 518 507 l 276 103 z "},"&":{"ha":771,"x_min":42,"x_max":735,"o":"m 732 451 q 731 429 735 440 q 726 417 731 422 q 679 346 710 381 q 604 290 649 311 q 632 228 625 260 q 636 174 639 196 q 591 42 631 89 q 500 -26 551 -4 q 397 -51 449 -47 q 318 -54 346 -54 q 200 -26 265 -54 q 90 60 135 1 q 66 98 78 76 q 48 148 54 119 q 42 210 42 176 q 54 285 43 244 l 54 286 q 107 374 72 339 q 179 428 142 408 q 158 457 167 440 q 133 556 132 501 q 163 660 135 611 q 239 735 190 708 q 349 763 288 763 l 350 763 q 471 732 421 763 q 493 713 486 721 q 504 690 501 704 q 503 657 508 674 q 490 628 499 640 q 469 612 481 617 q 453 615 458 607 q 441 631 446 624 q 429 646 436 639 q 428 649 428 647 q 349 669 404 669 q 279 651 304 669 q 243 614 254 633 q 226 556 228 586 q 239 503 225 526 q 274 472 251 482 q 308 469 293 468 q 344 474 324 471 q 358 467 353 475 q 363 447 363 460 q 360 421 364 435 q 346 396 356 407 q 321 376 338 381 q 289 371 308 371 q 252 359 274 367 q 210 338 231 351 q 170 306 189 325 q 143 260 151 286 q 164 115 119 174 q 199 81 179 96 q 241 57 219 67 q 283 43 263 47 q 318 39 303 39 q 488 72 436 39 q 543 181 539 104 l 543 182 q 540 212 544 189 q 511 254 536 235 q 488 236 497 246 q 467 214 479 226 q 447 213 458 206 q 425 234 435 219 q 413 267 415 249 q 418 304 410 286 q 468 349 428 328 q 484 356 475 353 q 513 358 493 358 q 567 375 543 361 q 606 405 590 389 q 631 435 622 421 q 643 456 640 450 q 648 473 646 465 q 653 496 650 481 q 667 506 654 506 q 692 501 679 507 q 717 482 706 494 q 732 451 729 469 z "},"_":{"ha":419,"x_min":40,"x_max":382,"o":"m 364 139 q 378 131 374 140 q 381 108 382 122 q 372 78 379 93 q 350 53 364 63 q 339 47 347 50 q 288 40 324 40 q 212 42 253 40 q 129 44 171 43 q 60 40 88 44 q 45 49 50 39 q 42 74 40 60 q 53 105 44 89 q 76 129 61 121 q 101 137 88 136 q 146 138 114 138 q 155 138 150 138 q 176 138 160 138 q 227 137 193 138 q 324 136 261 136 l 329 136 q 346 137 338 136 q 364 139 354 138 z "},"{":{"ha":349,"x_min":43,"x_max":311,"o":"m 276 139 q 300 115 292 131 q 310 84 308 99 q 306 60 311 69 q 292 51 301 50 q 273 53 282 53 q 256 54 264 54 l 250 54 l 151 54 q 119 67 132 54 q 106 100 106 81 l 106 246 q 90 263 101 253 q 67 279 78 272 q 49 297 56 286 q 44 321 43 308 q 71 361 47 350 q 92 374 82 367 q 106 386 101 381 l 106 558 q 119 591 106 578 q 151 604 132 604 l 242 604 q 289 608 264 604 q 303 599 299 610 q 306 574 308 589 q 296 542 304 558 q 272 517 288 525 q 247 509 260 510 q 200 510 233 508 l 199 510 l 199 382 q 190 346 199 363 q 168 317 181 329 q 190 286 181 303 q 199 250 199 269 l 199 146 l 218 146 q 250 146 238 147 l 260 146 q 276 139 265 144 z "},"}":{"ha":347,"x_min":39,"x_max":306,"o":"m 282 378 q 299 360 293 371 q 304 336 306 349 q 278 296 301 307 q 257 283 267 290 q 243 271 247 276 l 243 99 q 230 66 243 79 q 197 53 217 53 l 99 53 l 96 53 q 77 52 86 53 q 58 50 68 51 q 44 58 49 47 q 41 83 39 68 q 51 115 43 99 q 75 139 60 131 q 100 146 86 146 q 146 146 114 146 l 150 146 l 150 275 q 159 311 150 294 q 181 340 168 328 q 159 371 168 354 q 150 407 150 388 l 150 511 l 147 511 q 103 508 115 508 q 78 515 90 508 q 75 517 76 517 q 74 518 75 518 q 51 543 58 528 q 42 573 43 558 q 44 597 40 588 q 58 606 49 607 q 79 604 69 604 q 99 603 89 604 l 197 603 q 230 590 217 603 q 243 557 243 576 l 243 411 q 259 394 247 404 q 282 378 271 385 z "},"|":{"ha":188,"x_min":43,"x_max":146,"o":"m 142 67 q 143 33 142 47 q 146 1 144 18 q 136 -14 146 -10 q 112 -17 126 -18 q 81 -8 97 -15 q 56 15 65 0 q 50 28 53 18 q 49 34 50 31 q 49 40 49 38 l 49 88 l 49 94 l 49 96 l 49 546 q 48 578 49 565 q 44 608 47 590 q 53 622 43 618 q 79 625 64 626 q 110 615 94 624 q 138 593 126 607 q 143 569 144 586 q 142 517 142 551 l 142 514 l 142 67 l 142 67 z "},"a":{"ha":463,"x_min":-1,"x_max":571,"o":"m 356 411 q 353 374 354 397 q 353 324 351 350 q 357 266 354 288 q 364 233 360 244 q 388 260 374 243 q 417 298 401 276 q 449 344 432 319 q 481 394 465 369 q 509 417 490 411 q 544 411 528 422 q 566 383 561 401 q 560 347 571 364 q 541 315 560 346 q 494 247 522 285 q 418 158 450 185 q 357 131 386 131 q 336 134 349 131 q 312 147 324 138 q 289 173 300 156 q 271 219 278 190 q 269 225 269 222 q 268 231 269 228 q 128 124 200 124 q 57 148 88 124 q 11 217 26 172 q 0 282 1 246 q 7 353 -1 318 q 33 419 15 388 q 76 469 50 450 q 197 517 138 515 q 326 500 256 519 q 353 481 343 496 q 360 449 363 467 l 356 411 m 215 425 q 170 417 189 425 q 132 396 151 410 q 111 369 119 386 q 98 331 103 351 q 93 287 93 310 q 100 246 93 264 q 116 220 107 224 q 128 217 125 217 q 156 235 135 217 q 208 313 176 253 q 239 372 226 343 q 258 421 251 401 q 215 425 233 425 z "},"b":{"ha":458,"x_min":4,"x_max":565,"o":"m 61 131 q 44 132 53 131 q 17 146 26 135 q 6 165 8 154 q 4 175 4 171 q 4 210 4 178 q 7 294 4 242 q 19 416 10 346 q 47 565 28 486 q 60 617 56 596 q 64 650 65 639 q 73 667 63 663 q 97 668 83 671 q 125 656 111 665 q 146 631 139 646 q 149 609 149 624 q 140 554 150 594 q 134 526 138 540 q 128 499 131 513 q 179 506 151 504 q 239 501 207 507 q 343 426 311 489 q 358 379 354 404 q 358 326 361 354 q 451 383 413 358 q 490 410 489 408 q 524 417 506 421 q 554 399 543 414 q 562 363 565 382 q 543 333 558 344 q 513 313 540 332 q 442 268 485 294 q 349 215 400 242 q 247 169 297 188 q 61 131 172 131 m 224 410 q 158 410 188 417 q 111 397 128 404 q 101 298 104 342 q 97 225 99 254 q 151 233 122 228 q 203 251 179 239 q 205 252 204 251 q 207 253 206 253 q 235 273 222 261 q 256 300 249 285 q 260 385 278 349 q 224 410 250 406 z "},"c":{"ha":403,"x_min":-4,"x_max":508,"o":"m 489 408 q 506 378 504 397 q 497 343 508 358 q 481 324 496 342 q 442 280 467 306 q 381 223 417 254 q 304 164 346 192 q 183 126 247 126 q 99 146 136 126 q 29 205 56 167 q 0 288 3 243 q 8 374 -4 336 q 42 438 21 411 q 88 480 63 464 q 133 500 113 496 q 196 506 169 508 q 239 494 222 503 q 265 477 256 486 q 275 467 274 468 q 285 438 282 456 q 282 404 288 419 q 267 379 276 389 q 247 368 258 369 q 229 375 236 367 q 212 396 219 388 q 189 408 204 404 q 176 410 183 410 q 157 407 169 410 q 140 399 151 406 q 118 379 129 393 q 99 344 107 365 q 94 292 92 322 q 139 229 99 249 q 253 242 194 203 q 322 294 290 267 q 376 345 353 322 q 411 384 399 368 q 424 400 424 400 q 454 417 435 415 q 489 408 474 419 z "}}}
